<?xml version="1.0" encoding="UTF-8" standalone="no"?>
<svg
   version="1.1"
   id="Layer_1"
   x="0px"
   y="0px"
   width="512"
   viewBox="0 0 512 512"
   enable-background="new 0 0 426 735"
   xml:space="preserve"
   sodipodi:docname="file.svg"
   height="512"
   inkscape:version="1.4 (e7c3feb1, 2024-10-09)"
   xmlns:inkscape="http://www.inkscape.org/namespaces/inkscape"
   xmlns:sodipodi="http://sodipodi.sourceforge.net/DTD/sodipodi-0.dtd"
   xmlns="http://www.w3.org/2000/svg"
   xmlns:svg="http://www.w3.org/2000/svg"><defs
   id="defs130" /><sodipodi:namedview
   id="namedview130"
   pagecolor="#ffffff"
   bordercolor="#000000"
   borderopacity="0.25"
   inkscape:showpageshadow="2"
   inkscape:pageopacity="0.0"
   inkscape:pagecheckerboard="0"
   inkscape:deskcolor="#d1d1d1"
   inkscape:zoom="1.0398042"
   inkscape:cx="241.87245"
   inkscape:cy="289.95843"
   inkscape:window-width="1472"
   inkscape:window-height="842"
   inkscape:window-x="38"
   inkscape:window-y="46"
   inkscape:window-maximized="0"
   inkscape:current-layer="Layer_1" />


<rect
   style="fill:#ffffff;stroke-width:3.77953"
   id="rect130"
   width="510.67001"
   height="510.67001"
   x="1.8984016"
   y="8.5875321e-08" /><path
   fill="#7a7b7d"
   opacity="1"
   stroke="none"
   d="m 120.00226,429.5295 c -0.27643,-1.24787 -0.55286,-2.49571 -1.06532,-3.65732 -0.23604,-3.31124 -0.23604,-6.70869 -0.23604,-10.3857 0.3926,-0.74203 1.04052,-1.16162 1.12708,-1.67565 0.20974,-1.24565 0.15804,-2.53537 0.4711,-3.64197 0.25238,6.56764 0.24534,12.96996 0.10456,19.36735 -0.13373,-0.005 -0.40138,-0.007 -0.40138,-0.007 z"
   id="path3"
   style="stroke-width:1" />
<path
   fill="#7f8081"
   opacity="1"
   stroke="none"
   d="m 289.78575,479.71579 c -1.57922,-0.44389 -2.90252,-0.88779 -4.05034,-1.60792 4.05036,-0.24075 7.92525,-0.20528 11.80013,-0.16985 -1.53488,0.43337 -3.06976,0.86669 -4.51325,1.53891 -0.93263,0.23886 -1.95662,0.23886 -3.23654,0.23886 z"
   id="path4"
   style="stroke-width:1" />
<path
   fill="#2f3336"
   opacity="1"
   stroke="none"
   d="m 297.62662,477.9607 c -3.96596,-0.0581 -7.84085,-0.0936 -11.99085,-0.0763 -5.84584,-1.43649 -11.11541,-3.46344 -15.09238,-8.41336 -0.38546,-0.34645 -0.57947,-0.41933 -0.77348,-0.49224 1e-5,0 0.0397,-0.005 0.0426,-0.17255 -0.21144,-0.25501 -0.42581,-0.34254 -0.64017,-0.43011 0,0 0.0392,-0.001 0.0843,-0.19442 -1.19263,-1.45706 -2.43041,-2.72068 -3.66819,-3.98427 0,0 0.0408,-0.004 0.0425,-0.17127 -0.21232,-0.25337 -0.42633,-0.33919 -0.64033,-0.42504 0,0 0.0387,-0.003 0.097,-0.20813 -0.63882,-0.85473 -1.33596,-1.50442 -2.03309,-2.15415 -0.53196,0.79745 -1.06392,1.59487 -1.5959,2.39228 -1e-5,0 -1.7e-4,-0.0374 -0.26161,-0.0812 -6.85949,-0.36266 -13.45532,-0.74969 -20.05677,-0.96427 -2.38065,-0.0774 -4.77478,0.25924 -7.16276,0.40689 -0.48972,-0.0234 -1.05714,0.10722 -1.45697,-0.0945 -3.41479,-1.72232 -6.29904,-1.14196 -9.05781,1.53056 -3.34308,3.23861 -8.04444,3.21889 -12.55111,4.40595 -4.92983,-0.28115 -9.47074,-0.37025 -14.01165,-0.45938 0,0 0.0498,-0.0271 1.5e-4,-0.044 -0.1686,-0.11718 -0.30316,-0.12983 -0.45333,-0.055 -3.27082,-1.32804 -6.54163,-2.65608 -9.98257,-4.24121 -1.29583,-0.86978 -2.83725,-2.29162 -3.47878,-1.96198 -3.75899,1.93139 -7.7207,1.49322 -11.65983,1.66162 -1.18352,0.0506 -2.34607,0.59194 -3.51823,0.9085 -3.08609,0.4401 -6.17218,0.88024 -9.60386,1.179 -0.47865,-0.23744 -0.6005,-0.34612 -0.71113,-0.46738 0,0 0.0597,0.007 -0.0588,-0.15107 -5.90802,-1.03777 -11.6976,-1.91703 -17.48719,-2.79629 1e-5,-4e-5 -0.15579,0.0479 -0.25862,-0.19701 -0.75413,-0.49763 -1.40542,-0.75031 -2.05672,-1.00299 0,3e-5 -0.25898,-0.005 -0.47084,-0.1486 -0.37051,-0.23347 -0.51582,-0.34094 -0.6478,-0.4665 -5.70459,-3.01787 -10.29817,-7.11963 -12.88927,-13.62836 -0.4733,-1.71707 -0.92836,-2.99855 -1.38341,-4.28007 0,0 0.0383,0.002 0.0954,-0.25392 -0.56116,-4.46706 -1.17949,-8.67801 -1.79782,-12.88896 0.007,-6.40231 0.0141,-12.80463 -0.0106,-19.48999 3.76351,-15.08047 7.5588,-29.87789 11.5872,-45.00042 1.26053,-3.45652 2.28794,-6.58781 3.31536,-9.71913 1.21845,-3.58109 2.34658,-7.19616 3.67733,-10.735 1.82135,-4.84341 3.79667,-9.62895 5.76969,-14.79205 0.0814,-0.45443 0.0991,-0.55611 0.11686,-0.65777 0,0 0.005,0.0613 0.17549,-0.009 1.04311,-2.63091 1.91596,-5.1917 2.78881,-7.75252 0,0 0.006,0.0423 0.19306,0.01 0.86217,-1.63819 1.53709,-3.24379 2.21202,-4.84939 1.06198,-3.15415 1.94964,-6.38083 3.22505,-9.44617 2.14354,-5.15185 4.53359,-10.20116 7.0031,-15.59508 0.21748,-0.49957 0.33452,-0.6113 0.53427,-0.63674 -0.002,-0.1053 -0.004,-0.21062 0.21911,-0.55228 0.46435,-0.9506 0.70302,-1.66489 0.94169,-2.37916 0,0 0.009,0.0396 0.20924,0.0149 0.46157,-0.81776 0.72307,-1.61087 0.98457,-2.40397 1e-5,0 0.009,0.0392 0.19524,0.0165 1.26181,-2.02722 2.33762,-4.03171 3.41343,-6.0362 1.75057,-3.45304 3.33459,-7.00414 5.29479,-10.33377 2.33673,-3.9692 2.49154,-4.14928 -0.70202,-7.27619 -6.46945,-6.33442 -10.92868,-13.92362 -14.0781,-22.77725 -0.40079,-1.33761 -0.83203,-2.22664 -1.26327,-3.11566 0,0 -0.0628,-0.17865 0.0445,-0.55684 0.055,-8.6526 0.003,-16.92701 -0.0495,-25.20142 2.07298,-8.8893 5.5965,-17.05426 11.88093,-23.84745 0.59064,-0.63845 1.11439,-1.33878 1.84957,-2.3611 -0.0594,-3.37993 -0.39301,-6.40525 -0.51832,-9.43916 -0.22399,-5.42291 -0.32237,-10.85101 -0.46503,-16.55531 -0.24113,-5.78137 -0.45602,-11.28645 -0.78563,-16.78465 -0.039,-0.65101 -0.70602,-1.26437 -1.08192,-1.89519 -2.16924,-4.62272 -4.36699,-9.23251 -6.47631,-13.88241 -0.30905,-0.68129 -0.19738,-1.55345 -0.20479,-2.86469 0.0382,-6.77321 8.4e-4,-13.01904 -0.0366,-19.26485 0,0 0.01,0.0389 0.16011,0.0124 0.25248,-0.22111 0.35439,-0.4157 0.4563,-0.61028 0,0 -1e-5,0.0466 0.14652,0.0167 0.24788,-0.22477 0.34923,-0.4196 0.45058,-0.61443 0,0 -0.005,0.0407 0.15858,0.0676 0.61382,-0.16005 1.0641,-0.34697 1.51439,-0.5339 3.67609,-0.64806 7.35984,-1.25693 11.02259,-1.973218 0.85859,-0.16791 1.64609,-0.69933 3.00918,-1.30454 -3.1153,-1.14989 -5.49282,-2.3089 -8.00404,-2.89724 -5.66268,-1.32668 -7.71922,-6.245 -10.48714,-10.32685 -3.25706,-4.80318 -3.165,-10.64969 -2.95537,-16.03435 0.13123,-3.37082 2.44527,-6.83287 4.34245,-9.90677 1.72907,-2.80154 4.2167,-5.13491 6.69445,-7.75104 0.82925,-0.68496 1.33402,-1.29352 1.83879,-1.90209 0,0 0.0302,0.0348 0.22432,0.0867 1.05834,-0.59242 1.92252,-1.23675 2.7867,-1.88108 0,0 0.001,0.0382 0.20148,0.0851 0.86351,-0.39537 1.527,-0.83772 2.19048,-1.28007 0,0 -9.5e-4,0.0385 0.21915,0.0919 2.20654,-0.53292 4.19297,-1.1192 6.17941,-1.70547 10.46526,-1.705 17.3592,3.65566 22.82522,11.66608 1.58832,2.32767 2.83661,4.88736 4.26282,7.77935 0.41548,0.55598 0.80891,0.6733 1.20235,0.79063 0,0 0.0442,0.10749 -0.0606,0.38238 1.71499,2.12283 3.48567,4.0243 5.3939,5.77594 0.40792,0.37446 1.36236,0.40224 1.9837,0.25242 2.67479,-0.64496 5.31929,-1.41555 7.97481,-2.14038 4.10237,-0.8051 8.20472,-1.6102 12.65609,-2.25453 1.41845,0.19223 2.49458,0.31596 3.55619,0.23914 4.51309,-0.3266 9.01643,-0.90094 13.53357,-1.03211 6.51342,-0.18912 13.03573,-0.0722 19.55425,-0.0859 3.12898,0.35739 6.29091,1.18401 9.37953,0.96699 5.19984,-0.36538 9.83796,1.65037 14.71511,2.62649 3.39128,0.67874 4.30142,0.18239 5.5508,-3.45892 0.86681,-1.16079 1.36315,-2.1604 1.85948,-3.16001 0,0 0.0223,0.0327 0.1826,0.019 0.24712,-0.21617 0.33401,-0.4187 0.42091,-0.62123 0,0 0.0156,0.0349 0.16872,0.0154 0.24993,-0.21683 0.34668,-0.4142 0.44344,-0.61157 0,0 0.005,0.0389 0.14834,-7.8e-4 0.24344,-0.22563 0.34338,-0.41165 0.44331,-0.59766 0,0 0.006,0.0369 0.16241,0.0193 0.2495,-0.21713 0.34262,-0.41672 0.43575,-0.6163 0,-1e-5 0.008,0.0374 0.15003,-0.002 0.24536,-0.22453 0.3486,-0.41 0.45183,-0.59547 0,0 0.002,0.0382 0.15748,0.0158 0.24712,-0.21948 0.33932,-0.41654 0.43151,-0.61361 0,0 0.01,0.036 0.15176,0.0139 0.24447,-0.20126 0.34682,-0.38037 0.44917,-0.55947 4.78677,-2.38522 9.57353,-4.77044 14.85699,-7.11113 2.93344,-0.0588 5.37173,-0.13475 7.80639,-0.27425 1.85099,-0.10606 3.69734,-0.29287 5.54577,-0.44374 8.91084,-0.0363 15.43664,3.67856 18.96959,12.53992 0.19599,5.79526 0.40965,11.12323 0.62329,16.45119 0,0 0.0548,0.15586 -0.18997,0.26219 -0.50054,0.91045 -0.7563,1.71458 -1.01209,2.51871 -2.05095,4.61306 -3.35562,9.73489 -7.63143,12.94612 -2.27689,1.71 -4.95949,2.8798 -7.76398,4.268258 -0.47772,-0.11501 -0.62862,-0.0779 -0.75769,0.0861 0,0 0.0153,-0.0595 -0.14251,0.008 -0.44224,0.44356 -0.72667,0.81945 -1.01109,1.19534 0,0 -0.006,-0.039 -0.18115,-0.0462 -0.25111,0.20923 -0.32705,0.42564 -0.40299,0.64205 0,0 -0.0112,-0.0446 -0.17237,-0.11144 0.15523,0.56423 0.47166,1.19536 0.78808,1.82648 0,0 -0.0349,0.0225 -0.0582,0.20909 0.20496,0.29215 0.43325,0.39763 0.66154,0.50312 0,0 0.0291,0.10684 0.0344,0.33983 0.18846,0.41565 0.37169,0.59831 0.55492,0.78097 0,0 -0.042,-0.0131 -0.0826,0.20439 0.16254,1.8006 0.56103,3.1774 2.65186,2.76699 0,0 0.21014,-0.0342 0.50597,0.14512 1.75963,0.25262 3.22334,0.32727 4.68723,0.399 4.38122,0.21472 8.76248,0.4283 13.14374,0.64232 0,0 -0.0382,0.007 -0.018,0.15994 0.21791,0.25004 0.41564,0.34761 0.61336,0.44518 0,0 -0.0408,0.002 -0.0215,0.15699 0.21145,0.26053 0.40361,0.36597 0.5958,0.47143 0,0 0.0459,0.14935 -0.019,0.48089 -0.14214,2.52973 -0.27127,4.72775 -0.27871,6.92618 -0.005,1.49153 0.1607,2.98361 0.25006,4.47545 -3.41766,13.72877 -8.81077,26.48659 -17.47025,37.86079 -1.96171,2.57673 -2.29137,6.39598 -3.6322,9.98533 -0.89514,4.43818 -1.53036,8.5343 -2.16556,12.63043 -2.06314,5.50874 0.57514,10.11987 2.69574,14.90002 1.10309,2.48653 1.70552,5.19518 2.60782,8.24501 0.48454,1.29769 0.89537,2.15387 1.3062,3.01005 0,0 -0.0313,0.0175 -0.0553,0.28181 0.0121,1.54385 0.0238,2.82464 0.0894,4.10267 0.14938,2.90681 0.32529,5.81229 0.49046,8.71829 -0.18768,1.29341 -0.37536,2.5868 -0.80558,4.22929 -0.88318,3.49046 -1.5231,6.63197 -2.16464,9.77314 -0.39058,1.91231 -0.78362,3.82415 -1.17554,5.73619 -2.1415,4.7266 -3.39216,10.21588 -6.63296,14.00136 -4.88141,5.70185 -3.5732,10.67299 -1.09049,16.46254 4.15147,9.68116 8.08801,19.46013 11.85683,29.29684 1.39314,3.63619 2.05703,7.55179 3.01491,11.82028 0.65436,2.94237 1.30339,5.41799 2.05705,7.86131 0.44155,1.43145 1.04982,2.81145 1.58311,4.21461 0,0 -0.0497,0.003 0.0129,0.0946 0.15856,0.25082 0.29544,0.35804 0.47328,0.41298 1.00888,4.88534 2.01777,9.77066 2.88783,15.07175 0.35921,2.24412 0.85726,4.07247 1.35532,5.90082 0,0 0.0598,0.17984 -0.0422,0.54448 0.50571,4.56454 1.06273,8.77294 1.76115,12.95771 0.15115,0.90558 0.8107,1.72629 1.2361,2.58612 1.01496,5.99491 2.02992,11.98979 2.8492,18.33512 0.71417,4.07923 1.62399,7.80801 2.53382,11.53678 1.21822,6.67155 2.45559,13.33967 3.64853,20.01573 0.94885,5.31001 1.80468,10.63675 2.77317,15.94303 0.92277,5.0558 -0.0492,9.8643 -1.99859,14.46869 -2.75728,6.51267 -5.14869,13.28597 -8.78009,19.29273 -3.54924,5.87096 -8.62144,10.72606 -15.87474,13.24608 -3.33588,0.28381 -6.20246,0.72826 -9.06594,0.70897 -4.22054,-0.0284 -8.43887,-0.38705 -12.65813,-0.6051 -4.2443,-0.73825 -8.47687,-1.55892 -12.74003,-2.16458 -1.27982,-0.1818 -2.68236,0.0881 -3.96169,0.41411 -1.80217,0.45918 -3.54195,1.16326 -5.77191,1.73552 -1.3183,0.38414 -2.17314,0.79537 -3.02797,1.2066 0,0 -0.17696,0.0626 -0.26805,0.0399 m 61.22626,-26.87784 c 0,0 0.0431,0.011 0.45093,-0.0863 0.73967,-1.69031 1.47933,-3.38065 2.2054,-5.35474 0.0176,-0.19107 0.0696,-0.3723 0.47669,-0.85673 0.52539,-1.77711 1.42753,-3.53829 1.50343,-5.33439 0.20367,-4.82094 0.25923,-9.66948 -0.0361,-14.48185 -0.16504,-2.68922 -1.14563,-5.32834 -1.83967,-8.39379 -0.0303,-0.54707 -0.0607,-1.09417 0.0503,-2.09946 -0.42718,-0.98017 -0.85434,-1.96031 -1.43267,-3.38849 -0.0369,-0.62672 -0.0739,-1.25341 0.11608,-2.25932 0.51648,-2.87147 -0.33303,-5.22039 -2.67381,-7.62379 -0.8616,2.26771 -1.61127,3.96891 -2.1474,5.73494 -0.4595,1.51368 -0.6745,3.10157 -1.01249,5.04712 -0.0713,0.24973 -0.14249,0.49942 -0.56418,0.9226 -1.26016,2.8295 -2.54755,5.6473 -3.77344,8.49157 -1.46143,3.39071 -2.87013,6.80414 -4.3326,10.52223 -0.0846,0.19162 -0.16927,0.38327 -0.64911,0.67036 -1.86792,2.96935 -3.79225,5.90519 -5.58122,8.92139 -0.9719,1.63858 -1.71351,3.41372 -2.69972,5.49167 -0.67775,0.94047 -1.35549,1.88094 -2.40267,2.93475 -0.2185,0.43336 -0.43702,0.86672 -0.80871,1.57569 -0.21174,0.23274 -0.42346,0.46544 -1.02957,0.7767 -1.4815,1.4412 -3.13375,2.74763 -4.40317,4.3562 -1.75662,2.22588 -1.35007,2.93752 1.38667,3.39673 1.16141,0.19489 2.33133,0.5016 3.41748,0.95078 2.76747,1.14437 3.65011,0.74036 4.83233,-2.19388 0,0 -0.15641,-0.14944 0.23801,-0.16569 0.34052,-0.49425 0.68105,-0.98849 1.24855,-1.76184 0.46074,-0.37663 0.92148,-0.75327 1.81861,-1.14163 2.70918,-1.44365 5.41836,-2.88729 8.64465,-4.45824 1.76701,0.0422 3.53405,0.0844 5.50943,0.42136 1.31513,0.71429 2.7052,1.88765 3.48803,-0.61396 M 342.66445,122.48806 c 0.0554,6.34306 -0.1276,12.71885 2.31581,19.40956 0.73685,-1.20482 1.14707,-1.75402 1.42308,-2.36394 0.23611,-0.52176 0.31838,-1.11315 0.44047,-2.05844 0.0556,-0.24972 0.11112,-0.49944 0.51523,-0.90802 1.53059,-4.31484 3.30735,-8.56103 4.53411,-12.96058 1.84465,-6.61553 0.48522,-7.71584 -6.71236,-5.38439 -0.31192,-0.15601 -0.62386,-0.31201 -1.38631,-0.42107 -2.08464,0.92257 -1.51357,2.54469 -1.13003,4.68688 m -158.67796,34.6588 c -0.24186,-0.21654 -0.48374,-0.43308 -0.83886,-1.0308 -1.27417,-1.03046 -2.49092,-2.15166 -3.86639,-3.02202 -0.31014,-0.19624 -1.17346,0.48176 -1.80732,1.28212 0.0313,4.03603 0.0626,8.07206 -0.0997,12.67852 -0.053,1.76033 -0.27343,3.53634 -0.11027,5.2764 0.15349,1.63687 0.71173,3.23578 1.09189,4.85139 1.56266,-0.88911 3.12977,-1.77064 4.68004,-2.68084 0.13272,-0.0779 0.15356,-0.34639 0.43183,-0.78039 0.2709,-0.17816 0.54179,-0.3563 1.24289,-0.53646 2.08813,-1.3877 4.17626,-2.7754 6.57787,-4.25973 0.21591,-0.0333 0.43181,-0.0666 1.12999,0.0289 3.60249,-1.36525 7.89572,-0.71329 11.62319,-3.80188 -4.26244,-1.26789 -7.9084,-2.3524 -11.86625,-3.49573 -0.20041,-0.0673 -0.40082,-0.13471 -0.785,-0.57759 -2.36806,-1.26659 -4.73611,-2.53318 -7.40394,-3.93184 m 152.40446,72.49788 c 0.10955,-0.42399 0.2191,-0.84797 0.55357,-1.72859 0.14575,-1.50851 0.29149,-3.01705 0.7251,-4.81593 -0.0799,-1.03248 -0.1598,-2.06497 -0.18935,-3.66439 0.24952,-5.40368 -1.2758,-10.37557 -2.82061,-15.5369 -2.45334,-8.19678 -7.59005,-13.26653 -15.20381,-16.99421 -0.90635,-0.32449 -1.80023,-0.69071 -2.72141,-0.96546 -2.51297,-0.74954 -5.2623,-1.04338 -7.51811,-2.25949 -9.36286,-5.04757 -19.11411,-8.72027 -29.7883,-9.65503 -10.62635,-0.93058 -20.84143,-4.69963 -31.83401,-3.49197 -13.79494,1.51554 -27.7896,0.96934 -41.47278,3.91661 -6.09775,1.31341 -12.28789,2.25451 -17.94326,6.08197 -1.49646,0.93646 -3.21235,1.64864 -4.44505,2.85469 -2.82157,2.76052 -5.4449,5.72849 -8.07944,8.6742 -3.77309,4.21874 -7.23094,8.63999 -8.70222,14.5493 -0.10901,0.43003 -0.21802,0.86003 -0.56161,1.73801 -0.19194,2.27672 -0.38388,4.55341 -0.91379,7.11671 -0.18305,2.07866 -0.3661,4.1573 -0.67474,6.75588 0.0632,1.59988 0.12639,3.19978 0.0498,5.25252 1.12369,9.72352 5.34717,18.0728 11.7764,25.25315 3.26282,3.64403 5.95517,8.26681 11.12882,9.57092 3.03689,0.76549 6.28014,0.69533 9.42435,1.05532 9.10508,1.04242 18.10073,0.72616 26.7402,-2.62485 5.45102,-2.1143 10.79711,-4.50738 16.14142,-6.88522 2.91342,-1.29628 5.44736,-1.00052 8.15085,0.72175 3.66637,2.33566 7.44788,4.54441 11.36397,6.42437 13.20387,6.3387 26.91447,8.93907 41.39145,5.00827 2.20558,-0.59887 4.43208,-1.1215 6.65204,-1.66655 13.63405,-3.3475 24.28073,-15.39184 25.83591,-29.18833 0.87217,-1.78083 1.74435,-3.56166 2.93459,-5.49675 m -19.83535,126.51866 c 0.66358,3.00457 1.52214,5.98208 1.94328,9.02022 0.57729,4.16465 0.72454,4.20027 4.73723,2.7085 6.58121,-2.4466 13.35961,-3.86147 20.43102,-2.47485 2.49483,0.48914 4.97137,1.07157 8.32501,1.80023 -5.15678,-34.20473 -13.69233,-66.79879 -28.23612,-97.84051 -0.67933,0.21598 -1.35502,0.36066 -1.97157,0.6372 -12.35484,5.54107 -25.26385,8.37398 -38.82891,7.71242 -3.24454,-0.15824 -4.93682,0.90332 -5.70758,4.14886 -0.8484,3.57228 -2.68273,6.38496 -6.57345,7.79412 -2.69104,0.97462 -4.557,-0.21528 -6.75626,-0.963 -4.30423,-1.46344 -8.65528,-2.78869 -12.96693,-4.23097 -2.37764,-0.79535 -3.60627,-2.5315 -3.27735,-5.03228 0.39788,-3.0249 1.09099,-6.01046 1.51193,-9.03314 0.13132,-0.94291 0.15345,-2.34421 -0.40055,-2.85039 -1.29739,-1.18537 -2.88158,-2.21504 -4.52981,-2.80103 -1.05047,-0.37348 -2.61199,-0.16012 -3.57783,0.4105 -0.54491,0.32193 -0.58035,1.93532 -0.43832,2.9075 0.37248,2.54962 1.06426,5.0523 1.44537,7.6011 0.31772,2.12476 -0.65902,3.74055 -2.69053,4.45936 -5.41464,1.9159 -10.77296,4.08915 -16.32101,5.50384 -6.25084,1.59392 -8.47413,0.0152 -10.40735,-6.07139 -1.99353,-6.27643 -1.98853,-6.07917 -8.86904,-5.90425 -6.55693,0.16672 -13.20736,0.0892 -19.30546,-2.76594 -2.43338,-1.13932 -3.69862,-0.56735 -4.76927,1.53752 -4.00217,7.86818 -8.37214,15.57569 -11.90819,23.64832 -5.2114,11.89735 -10.00696,23.98687 -14.64617,36.12203 -4.71016,12.32078 -9.03569,24.7891 -13.46025,37.21753 -0.35398,0.99432 -0.16832,2.18072 -0.29834,4.37176 13.60802,-12.66945 28.5755,-11.08086 43.87858,-6.87107 0.1926,-0.85852 0.35535,-1.32608 0.39578,-1.80394 0.4264,-5.04067 0.46958,-10.14775 1.35375,-15.10544 0.79251,-4.44373 2.33662,-8.78422 3.87895,-13.05105 0.82719,-2.28837 2.83176,-3.39978 5.33233,-2.36274 2.17148,0.90049 2.38794,3.10242 1.69751,5.93423 -1.70836,7.00689 -3.49385,14.04096 -4.43748,21.17142 -0.58332,4.40767 0.16455,8.8619 5.89094,10.5121 3.07966,0.8875 6.06508,2.63136 8.66521,4.56432 13.11775,9.75187 24.46733,21.22621 32.64553,35.50167 3.29636,5.75398 5.50177,12.08837 4.48522,18.82477 -1.08461,7.18752 -3.30424,14.09891 -7.33904,20.29762 -0.65883,1.01214 -1.03359,2.20919 -1.66139,3.5882 5.42808,0.65064 10.32775,1.33912 15.2492,1.78998 2.96155,0.27134 5.95672,0.20236 8.93728,0.22905 1.7452,0.0156 2.19663,-0.83802 1.7311,-2.521 -2.27321,-8.21851 -1.72018,-16.26239 1.45388,-24.19136 3.48875,-8.71504 9.20899,-15.97678 14.8944,-23.25952 9.14569,-11.71509 18.75862,-23.04298 31.50036,-31.02784 3.50533,-2.19669 4.34132,-4.4894 3.34573,-8.06291 -2.28284,-8.19379 -4.54194,-16.39425 -6.84291,-24.58292 -0.8324,-2.96231 -0.0776,-5.35684 2.01269,-6.05608 2.16672,-0.72482 4.50167,0.53261 5.49384,3.37329 1.73281,4.96122 3.23551,10.00285 4.98499,15.47596 m -160.06285,68.1211 c 5.98253,6.3601 11.81935,12.86653 18.00284,19.02485 3.64457,3.62972 7.93494,6.60085 11.76744,10.05398 10.51325,9.47254 21.62375,10.65654 31.84011,4.53858 10.19207,-6.1034 14.77358,-16.90453 16.35923,-28.57019 0.79096,-5.81919 -2.35029,-10.73327 -5.04547,-15.60853 -4.15273,-7.51195 -10.66512,-13.02877 -16.23207,-19.36488 -6.96592,-7.92831 -15.49604,-13.32082 -25.09356,-17.13009 -4.36634,-1.73292 -9.14962,-2.38283 -13.64125,-3.84004 -7.62276,-2.47306 -15.14326,-2.59786 -22.32891,1.06493 -7.7378,3.94427 -13.78834,11.41823 -10.69156,21.44265 3.1781,10.28763 8.44479,19.45138 15.0632,28.38874 M 332.0012,117.84915 c -1.28735,-0.10981 -2.59977,-0.0954 -3.85803,-0.34932 -9.05025,-1.82662 -18.06469,-3.8411 -27.14009,-5.52946 -7.31849,-1.36151 -14.70912,-2.3328 -22.06244,-3.51038 -4.80444,-0.7694 -5.62748,-0.31446 -5.85371,4.40307 -0.43803,9.13307 -0.88658,18.27566 -0.9154,27.41561 -0.0312,9.92 8.69019,21.02738 18.41834,22.89896 7.28013,1.4006 14.77551,2.06718 22.19259,2.22252 4.23979,0.0888 8.69489,-1.00022 12.72969,-2.45544 5.43014,-1.95845 10.28498,-5.0897 10.96127,-11.69665 0.99905,-9.76028 2.63915,-19.51761 0.70596,-29.34878 -0.49566,-2.52064 -1.8221,-4.17019 -5.17818,-4.05013 m -15.83661,340.41923 c 4.34908,-4.89966 9.10303,-9.50138 12.96945,-14.75619 10.54662,-14.33391 17.0162,-30.68194 22.09365,-47.58074 2.81049,-9.35395 0.13649,-16.63027 -7.533,-22.33284 -0.51887,-0.38578 -1.30223,-0.60835 -1.9537,-0.59008 -2.8726,0.0803 -5.7949,-0.0185 -8.60271,0.48541 -9.21738,1.65411 -17.00737,6.47027 -24.40691,11.85749 -10.71539,7.8013 -19.3014,17.76239 -27.10816,28.3392 -4.45789,6.03965 -8.64772,12.37736 -12.10428,19.02492 -2.88216,5.54289 -4.49432,11.70288 -2.1615,18.14442 2.24563,6.20089 6.40079,10.91811 11.39989,14.95837 4.48576,3.62546 9.72365,4.8271 15.41138,4.13402 8.66587,-1.05607 15.80375,-5.03748 21.99589,-11.68398 m -98.1098,-353.17553 c -10.77613,1.05004 -21.56289,2.00384 -32.32362,3.19307 -4.9471,0.54673 -6.3022,2.04111 -6.75608,7.0176 -0.54134,5.93567 -1.01945,11.89129 -1.11981,17.84511 -0.0339,2.00955 0.64348,4.46919 1.88892,5.9933 10.52528,12.88021 23.74588,19.54816 40.75003,16.73036 7.42769,-1.23086 13.5275,-4.82486 17.46851,-11.31267 5.34675,-8.80195 5.25934,-18.58654 4.16732,-28.37051 -0.347,-3.10879 -1.51356,-6.13881 -2.43239,-9.16624 -0.54345,-1.79066 -1.81793,-2.75269 -3.81137,-2.66065 -5.75262,0.26562 -11.50731,0.48673 -17.83151,0.73063 m -4.4509,-24.828308 c -12.43026,4.34889 -24.74457,13.19219 -25.0704,18.13304 0.39299,0 0.7797,0.0309 1.16025,-0.004 14.33617,-1.33354 28.66312,-2.77937 43.01251,-3.95033 4.58029,-0.37376 9.14051,0.17647 13.03413,3.21698 0.77854,0.60797 2.02337,0.85877 3.05533,0.86416 7.92346,0.0414 15.8504,-0.16221 23.77028,6.6e-4 5.83451,0.11997 11.74287,0.18653 17.47053,1.15284 9.10033,1.535328 18.06326,3.870238 27.11294,5.727388 4.10856,0.84314 8.28574,1.35208 13.29067,2.14945 -1.09297,-2.61907 -1.67443,-4.27902 -2.45544,-5.83907 -3.93763,-7.865358 -10.23776,-13.178328 -17.9604,-17.213948 -8.05752,-4.21061 -16.21013,-8.01121 -25.33458,-9.06016 -4.82777,-0.555 -9.69963,-0.76072 -14.55728,-1.01561 -18.9816,-0.99602 -37.75021,0.15364 -56.52854,5.83907 M 252.6062,128.7095 c -0.62221,14.37187 -6.45355,25.89445 -19.44691,33.9794 1.39622,0.2565 1.96035,0.4618 2.5188,0.44739 7.75257,-0.20014 15.50512,-0.60826 23.25597,-0.5744 3.59576,0.0157 7.18748,0.8795 10.78184,1.35276 0.6833,0.09 1.37034,0.1516 2.71404,0.29808 -1.20299,-1.9603 -2.00933,-3.29461 -2.83527,-4.61668 -4.0478,-6.47928 -7.39398,-13.15679 -6.88884,-21.15001 0.57616,-9.11678 0.92781,-18.24818 1.55059,-27.36135 0.16834,-2.46338 -0.43112,-3.49638 -3.01574,-3.38205 -2.47544,0.10949 -4.96853,-0.0733 -7.44891,-0.21452 -2.0996,-0.11958 -2.94443,0.28154 -2.61957,2.83797 0.7502,5.90349 1.00513,11.86991 1.434,18.38341 M 132.95096,397.3931 c -0.31069,0.0586 -0.86566,0.0571 -0.89705,0.18454 -1.5633,6.34581 -3.5606,12.63416 -4.48235,19.07592 -1.12092,7.83375 0.68168,15.59381 2.27324,23.274 0.17308,0.83522 0.61518,1.61466 0.98966,2.56505 4.18705,-1.76355 7.97068,-1.05549 11.48032,1.20974 1.74503,1.12632 3.41224,2.42348 4.92525,3.84499 1.54069,1.44747 2.67189,1.1707 4.43069,0.17263 2.60161,-1.47638 5.5503,-2.34062 8.34918,-3.47056 0.49724,-0.20073 0.98455,-0.4261 1.79021,-0.77663 -2.34084,-2.80898 -4.39591,-5.46476 -6.64646,-7.94301 -10.02078,-11.03452 -17.39434,-23.59685 -22.21269,-38.13667 M 310.23218,72.361432 c 0.35959,1.14073 0.71916,2.28146 1.07875,3.42219 0.91802,-0.76937 2.17179,-1.35914 2.696,-2.33915 2.29001,-4.28129 5.98857,-6.14385 10.57196,-6.7577 4.32447,-0.57918 8.22991,0.38424 11.00076,3.81341 2.87447,3.55747 4.32773,7.72748 2.14969,12.17865 -1.28804,2.63233 -3.23947,4.93274 -4.71685,7.48415 -0.44982,0.77682 -0.60297,1.98143 -0.34425,2.82137 0.16887,0.54822 1.46826,1.26359 2.01552,1.09698 3.81476,-1.1614 7.73805,-2.48057 9.7703,-6.22686 2.01809,-3.72014 3.9604,-7.5784 5.19599,-11.60325 1.85044,-6.02769 -1.37284,-14.11825 -6.09152,-15.73832 -11.32798,-3.88924 -21.70788,-1.78936 -30.98619,5.68242 -1.70984,1.37693 -3.11953,3.14819 -2.34016,6.16611 m -145.54949,6.21398 c 2.32749,7.95692 8.64521,12.41719 16.76473,11.61323 1.08713,-0.10764 2.07496,-1.21816 3.10877,-1.86427 -0.56665,-0.83037 -0.97366,-1.86368 -1.7272,-2.45649 -3.53396,-2.78014 -7.09899,-5.54087 -8.79415,-9.89371 -2.14511,-5.5082 -1.19683,-12.24483 5.38133,-14.60663 6.53668,-2.34692 11.7939,0.12328 16.96312,3.58458 1.00217,0.67106 1.97607,1.38435 2.96301,2.07816 0.22704,-0.20849 0.45407,-0.41697 0.6811,-0.62545 -1.36582,-2.22395 -2.46448,-4.67731 -4.14336,-6.63245 -7.59122,-8.84043 -12.12619,-9.74967 -21.529,-3.93354 -7.99734,4.94676 -12.0817,14.68546 -9.66835,22.73657 m 25.41973,-10.74971 c -1.87765,-0.12739 -3.77131,-0.47376 -5.62968,-0.33774 -4.1952,0.30704 -7.20921,4.74646 -5.33061,7.99051 2.06839,3.57178 8.84224,7.92929 14.02235,6.51143 1.79028,-0.49001 3.49748,-1.50364 2.89159,-3.44732 -1.18504,-3.80162 -1.89858,-7.96587 -5.95365,-10.71688 m 128.42406,11.46801 c 0.34249,4.53908 2.53862,6.81312 6.57374,6.80693 3.92237,-0.006 6.57231,-2.48462 6.81793,-6.37715 0.23699,-3.75503 -1.94126,-6.37836 -5.60778,-6.75372 -4.35149,-0.44548 -6.98939,1.54823 -7.78389,6.32394 m 0.60464,100.531608 c 2.70589,1.65796 5.43335,3.28219 8.1074,4.99004 1.11566,0.71253 2.34971,1.43362 2.77225,-0.37917 0.95734,-4.1073 1.63172,-8.28053 2.44127,-12.53257 -6.5617,1.39661 -12.67645,2.69808 -19.64787,4.18188 2.46966,1.43959 4.22085,2.46038 6.32695,3.73982 m -183.6903,267.8284 c -2.12178,2.37322 -2.00698,4.84836 0.31239,6.56463 1.03451,0.76551 1.99319,1.92709 3.14307,2.1716 1.57039,0.33394 3.86251,0.58236 4.7885,-0.27448 0.96345,-0.89155 1.22914,-3.30624 0.80203,-4.76217 -0.75615,-2.57762 -5.88616,-4.62914 -9.04599,-3.69958 M 259.132,278.04046 c 2.04539,0.70937 4.12395,1.33714 6.12681,2.15116 1.98699,0.80755 3.05848,0.43851 3.70474,-1.77689 0.652,-2.23514 0.0152,-3.34971 -2.13544,-3.94639 -1.89432,-0.52561 -3.8257,-1.03873 -5.59085,-1.87406 -1.70892,-0.80874 -2.84851,-0.60028 -3.54188,1.12989 -0.62939,1.57051 -1.35801,3.26796 1.43662,4.31629 m 89.33516,188.05214 c 1.40896,-1.64962 2.87624,-3.25487 4.18751,-4.97879 0.3451,-0.4537 0.48839,-1.46767 0.21083,-1.87084 -0.26401,-0.38349 -1.399,-0.62881 -1.80703,-0.37711 -2.72542,1.68116 -5.52114,3.32257 -7.93431,5.39561 -0.85084,0.73088 -0.69269,2.63635 -0.99521,4.00551 1.43553,-0.24229 2.89278,-0.40095 4.29676,-0.76493 0.63013,-0.16333 1.15371,-0.73759 2.04145,-1.40945 M 222.53726,271.59852 c -2.07162,0.27729 -2.61513,1.58797 -2.14668,3.40136 0.53554,2.07297 2.09585,1.3327 3.3743,1.01548 2.09499,-0.51978 4.28245,-0.90991 6.18575,-1.85066 0.87539,-0.43271 1.17021,-2.03997 1.72829,-3.11463 -1.01363,-0.41821 -2.08733,-1.28614 -3.02827,-1.16042 -1.92044,0.25657 -3.76941,1.04806 -6.11339,1.70887 m -56.77318,183.97593 c -0.99747,-0.80623 -1.92306,-1.72898 -3.00586,-2.3969 -3.25177,-2.00588 -6.92148,-0.36924 -8.06429,4.0338 3.61864,0 7.11333,0.0271 10.60536,-0.0564 0.25174,-0.006 0.4842,-0.8178 0.46479,-1.58043 m 163.07846,10.80998 c -1.80601,0.25961 -3.61201,0.51922 -5.41802,0.77882 0.003,0.37871 0.006,0.75743 0.008,1.13613 1.65618,0.50172 3.28536,1.19272 4.97864,1.43424 1.01845,0.14521 2.13679,-0.41006 3.21026,-0.65053 -0.78121,-0.86063 -1.5624,-1.72126 -2.77939,-2.69866 M 204.73205,72.669782 c -0.7162,-0.63425 -1.4324,-1.2685 -2.1486,-1.90275 -0.058,0.96128 -0.20626,1.92829 -0.14557,2.88201 0.0489,0.76809 0.24429,1.56942 0.56832,2.26593 0.35225,0.75719 0.92818,1.41032 1.40659,2.10882 0.50359,-0.93417 1.24001,-1.82487 1.42549,-2.81842 0.11559,-0.61918 -0.60131,-1.39377 -1.10623,-2.53559 m -33.52691,39.446668 c -0.21506,-0.94188 -0.43012,-1.88375 -0.64519,-2.82562 -0.38253,0.0675 -0.76507,0.13492 -1.1476,0.20239 0,3.03523 0,6.07046 0,9.10568 0.33421,0.0314 0.66843,0.0627 1.00264,0.0941 0.2634,-2.0309 0.5268,-4.0618 0.79015,-6.57657 z"
   id="path5"
   style="stroke-width:1" />
<path
   fill="#818283"
   opacity="1"
   stroke="none"
   d="m 273.39057,66.153532 c -6.38132,0.24395 -12.90363,0.12702 -19.41705,0.31614 -4.51714,0.13117 -9.02048,0.70551 -13.53357,1.03211 -1.06161,0.0768 -2.13774,-0.0469 -3.32963,-0.29319 11.91083,-2.44197 24.04863,-1.12867 36.28025,-1.05506 z"
   id="path6"
   style="stroke-width:1" />
<path
   fill="#67696a"
   opacity="1"
   stroke="none"
   d="m 169.07356,158.3419 c 0.15089,5.42592 0.24927,10.85402 0.47326,16.27693 0.12531,3.03391 0.45894,6.05923 0.61125,9.25917 -0.50225,-0.77783 -1.24599,-1.7149 -1.27961,-2.67679 -0.25986,-7.43389 -0.38236,-14.87256 -0.35348,-22.58531 0.31216,-0.27503 0.43037,-0.27451 0.54858,-0.274 z"
   id="path7"
   style="stroke-width:1" />
<path
   fill="#818283"
   opacity="1"
   stroke="none"
   d="m 323.53291,476.9292 c 4.08262,0.018 8.30095,0.37667 12.52149,0.40503 2.86348,0.0193 5.73006,-0.42516 8.87252,-0.63514 -6.8597,2.3646 -14.0348,2.66555 -21.39401,0.23011 z"
   id="path8"
   style="stroke-width:1" />
<path
   fill="#7f8081"
   opacity="1"
   stroke="none"
   d="m 223.98088,69.505402 c -2.40873,0.7366 -5.05323,1.50719 -7.72802,2.15215 -0.62134,0.14982 -1.57578,0.12204 -1.9837,-0.25242 -1.90822,-1.75164 -3.67891,-3.65311 -5.43315,-5.73308 1.74488,1.23666 3.20905,3.2811 5.16417,4.0116 1.94183,0.72553 4.37829,0.15799 6.59633,0.1 1.04768,-0.0274 2.09183,-0.18914 3.38437,-0.27825 z"
   id="path9"
   style="stroke-width:1" />
<path
   fill="#737576"
   opacity="1"
   stroke="none"
   d="m 341.68695,242.45133 c 0.20115,-1.80164 0.59419,-3.71348 0.98477,-5.62579 0.64154,-3.14117 1.28147,-6.28268 2.09793,-9.53446 0.11932,5.1385 -0.39762,10.29424 -3.0827,15.16025 z"
   id="path10"
   style="stroke-width:1" />
<path
   fill="#818283"
   opacity="1"
   stroke="none"
   d="m 156.11995,210.41648 c 0.26696,8.12447 0.31922,16.39888 0.28918,24.96015 -0.28619,-0.0314 -0.66895,-0.3504 -0.66776,-0.66793 0.0301,-8.04751 0.10054,-16.0949 0.37858,-24.29222 z"
   id="path11"
   style="stroke-width:1" />
<path
   fill="#6e7071"
   opacity="1"
   stroke="none"
   d="m 360.65482,109.71977 c -4.38246,0.0388 -8.76372,-0.17472 -13.14493,-0.38944 -1.4639,-0.0717 -2.92761,-0.14638 -4.58585,-0.3665 4.20469,-0.36466 8.60341,-0.71471 13.00326,-0.72984 1.57479,-0.005 3.1524,0.79844 4.72752,1.48578 z"
   id="path12"
   style="stroke-width:1" />
<path
   fill="#818283"
   opacity="1"
   stroke="none"
   d="m 169.08179,158.06352 c -0.12644,0.27787 -0.24465,0.27735 -0.54017,0.27875 -0.571,-6.15202 -0.96468,-12.30598 -1.34287,-18.70926 0.39139,0.38149 1.05838,0.99485 1.09741,1.64586 0.32961,5.4982 0.5445,11.00328 0.78563,16.78465 z"
   id="path13"
   style="stroke-width:1" />
<path
   fill="#737576"
   opacity="1"
   stroke="none"
   d="m 357.22608,80.218952 c -0.40774,-5.16093 -0.6214,-10.48889 -0.81724,-16.07425 0.62612,1.43399 1.72125,3.11923 1.74276,4.81806 0.0468,3.6927 -0.4543,7.39235 -0.92552,11.25619 z"
   id="path14"
   style="stroke-width:1" />
<path
   fill="#737576"
   opacity="1"
   stroke="none"
   d="m 359.99077,363.53526 c -0.44713,-0.60799 -1.10668,-1.4287 -1.25783,-2.33428 -0.69842,-4.18477 -1.25544,-8.39317 -1.78085,-12.865 1.075,4.80118 2.06771,9.87429 3.03868,15.19928 z"
   id="path15"
   style="stroke-width:1" />
<path
   fill="#919ea7"
   opacity="1"
   stroke="none"
   d="m 365.3632,393.40519 c -0.92097,-3.47496 -1.83079,-7.20374 -2.53101,-11.05191 0.98711,3.51973 1.76462,7.15894 2.53101,11.05191 z"
   id="path16"
   style="stroke-width:1" />
<path
   fill="#818283"
   opacity="1"
   stroke="none"
   d="m 337.27622,51.187942 c -1.68555,0.35781 -3.5319,0.54461 -5.38289,0.65067 -2.43466,0.1395 -4.87295,0.21548 -7.59421,0.26314 4.08173,-0.41067 8.448,-0.7657 12.9771,-0.91381 z"
   id="path17"
   style="stroke-width:1" />
<path
   fill="#7f8081"
   opacity="1"
   stroke="none"
   d="m 338.72916,183.45277 c 0.41367,-3.98364 1.04889,-8.07976 1.85444,-12.28708 -0.43076,3.98406 -1.03185,8.07932 -1.85444,12.28708 z"
   id="path18"
   style="stroke-width:1" />
<path
   fill="#7a7b7d"
   opacity="1"
   stroke="none"
   d="m 160.27066,103.5048 c 0.2633,6.11274 0.30069,12.35857 0.28922,18.89134 -0.2553,-0.22914 -0.64134,-0.7455 -0.64066,-1.26133 0.008,-5.83236 0.0745,-11.66463 0.35144,-17.63001 z"
   id="path19"
   style="stroke-width:1" />
<path
   fill="#737576"
   opacity="1"
   stroke="none"
   d="m 352.28148,325.96854 c -0.53013,-1.15303 -1.13841,-2.53303 -1.57996,-3.96448 -0.75366,-2.44332 -1.40269,-4.91894 -2.06697,-7.62815 1.23375,3.61607 2.43878,7.47928 3.64693,11.59263 z"
   id="path20"
   style="stroke-width:1" />
<path
   fill="#818283"
   opacity="1"
   stroke="none"
   d="m 135.23666,355.45306 c -0.83479,3.00985 -1.86221,6.14114 -3.06698,9.35143 0.83988,-3.024 1.85712,-6.12699 3.06698,-9.35143 z"
   id="path21"
   style="stroke-width:1" />
<path
   fill="#737576"
   opacity="1"
   stroke="none"
   d="m 361.80819,122.84887 c -0.12191,-1.252 -0.28766,-2.74408 -0.2826,-4.23561 0.007,-2.19843 0.13656,-4.39645 0.24837,-6.85419 0.43684,0.66549 1.23075,1.61767 1.1688,2.51049 -0.19366,2.79187 -0.71045,5.56133 -1.13457,8.57931 z"
   id="path22"
   style="stroke-width:1" />
<path
   fill="#818283"
   opacity="1"
   stroke="none"
   d="m 147.75659,321.47207 c -0.67197,2.47425 -1.54483,5.03504 -2.61857,7.6689 0.67198,-2.47875 1.54484,-5.03054 2.61857,-7.6689 z"
   id="path23"
   style="stroke-width:1" />
<path
   fill="#4a5f6a"
   opacity="1"
   stroke="none"
   d="m 345.65897,222.54772 c -0.18219,-2.63061 -0.35811,-5.53609 -0.50749,-8.4429 -0.0657,-1.27803 -0.0773,-2.55882 -0.0811,-4.11856 0.21174,2.7194 0.40759,5.71815 0.56249,8.71898 0.0613,1.1866 0.0315,2.37791 0.0262,3.84248 z"
   id="path24"
   style="stroke-width:1" />
<path
   fill="#818283"
   opacity="1"
   stroke="none"
   d="m 166.86872,279.57565 c -0.85629,1.95651 -1.9321,3.961 -3.21399,5.98999 0.86076,-1.96434 1.9276,-3.95319 3.21399,-5.98999 z"
   id="path25"
   style="stroke-width:1" />
<path
   fill="#737576"
   opacity="1"
   stroke="none"
   d="m 180.40085,45.004542 c -1.74179,0.59248 -3.72822,1.17876 -5.95305,1.70564 1.40272,-1.83789 3.47998,-2.04686 5.95305,-1.70564 z"
   id="path26"
   style="stroke-width:1" />
<path
   fill="#737576"
   opacity="1"
   stroke="none"
   d="m 357.02153,347.45329 c -0.5056,-1.58285 -1.00365,-3.4112 -1.39563,-5.4108 0.53846,1.60758 0.97081,3.38644 1.39563,5.4108 z"
   id="path27"
   style="stroke-width:1" />
<path
   fill="#818283"
   opacity="1"
   stroke="none"
   d="m 150.13722,316.59466 c -0.4496,1.55676 -1.12452,3.16236 -2.00784,4.80337 0.45524,-1.56124 1.11888,-3.15787 2.00784,-4.80337 z"
   id="path28"
   style="stroke-width:1" />
<path
   fill="#7a7b7d"
   opacity="1"
   stroke="none"
   d="m 342.20453,108.61217 c -1.97868,0.58445 -2.37717,-0.79235 -2.53313,-2.61393 0.83843,0.65433 1.62972,1.54711 2.53313,2.61393 z"
   id="path29"
   style="stroke-width:1" />
<path
   fill="#67696a"
   opacity="1"
   stroke="none"
   d="m 304.84326,63.441542 c -0.3069,0.91643 -0.80324,1.91604 -1.52652,2.9248 0.29441,-0.9411 0.81575,-1.89135 1.52652,-2.9248 z"
   id="path30"
   style="stroke-width:1" />
<path
   fill="#737576"
   opacity="1"
   stroke="none"
   d="m 171.64431,47.830132 c -0.65351,0.6335 -1.51769,1.27783 -2.59644,1.85969 0.65222,-0.65793 1.519,-1.25339 2.59644,-1.85969 z"
   id="path31"
   style="stroke-width:1" />
<path
   fill="#4a5f6a"
   opacity="1"
   stroke="none"
   d="m 345.12441,209.50485 c -0.41785,-0.64069 -0.82868,-1.49687 -1.23198,-2.58964 0.41801,0.63367 0.82849,1.50391 1.23198,2.58964 z"
   id="path32"
   style="stroke-width:1" />
<path
   fill="#7f8081"
   opacity="1"
   stroke="none"
   d="m 298.11082,477.91047 c 0.63868,-0.40092 1.49352,-0.81215 2.58056,-1.20336 -0.63333,0.41108 -1.49886,0.80204 -2.58056,1.20336 z"
   id="path33"
   style="stroke-width:1" />
<path
   fill="#818283"
   opacity="1"
   stroke="none"
   d="m 156.34166,236.24557 c 0.42923,0.66825 0.86047,1.55728 1.23863,2.6836 -0.44759,-0.66272 -0.8421,-1.56276 -1.23863,-2.6836 z"
   id="path34"
   style="stroke-width:1" />
<path
   fill="#7a7b7d"
   opacity="1"
   stroke="none"
   d="m 338.54546,103.79434 c -0.30709,-0.44364 -0.62352,-1.07477 -0.76322,-1.62208 0.36912,0.53408 0.56153,0.98434 0.76322,1.62208 z"
   id="path35"
   style="stroke-width:1" />
<path
   fill="#737576"
   opacity="1"
   stroke="none"
   d="m 168.63594,49.620072 c -0.29675,0.6022 -0.80153,1.21076 -1.44922,1.81405 0.31846,-0.60608 0.77983,-1.20688 1.44922,-1.81405 z"
   id="path36"
   style="stroke-width:1" />
<path
   fill="#737576"
   opacity="1"
   stroke="none"
   d="m 174.03775,46.638062 c -0.4543,0.42866 -1.11779,0.87101 -1.99951,1.26066 0.45127,-0.4508 1.1208,-0.84888 1.99951,-1.26066 z"
   id="path37"
   style="stroke-width:1" />
<path
   fill="#818283"
   opacity="1"
   stroke="none"
   d="m 162.10159,288.00385 c -0.0545,0.64682 -0.29316,1.36111 -0.70578,2.1624 0.0579,-0.6403 0.28976,-1.36761 0.70578,-2.1624 z"
   id="path38"
   style="stroke-width:1" />
<path
   fill="#818283"
   opacity="1"
   stroke="none"
   d="m 163.2804,285.61582 c -0.0623,0.72461 -0.32383,1.51772 -0.80559,2.33774 0.0553,-0.73848 0.33085,-1.50385 0.80559,-2.33774 z"
   id="path39"
   style="stroke-width:1" />
<path
   fill="#737576"
   opacity="1"
   stroke="none"
   d="m 356.01693,83.078082 c 0.0688,-0.71533 0.32454,-1.51946 0.80062,-2.351 -0.0576,0.73578 -0.33564,1.499 -0.80062,2.351 z"
   id="path40"
   style="stroke-width:1" />
<path
   fill="#7a7b7d"
   opacity="1"
   stroke="none"
   d="m 338.73802,101.65131 c 0.0696,-0.35631 0.35405,-0.73221 0.82611,-1.16847 -0.0787,0.34272 -0.34499,0.74581 -0.82611,1.16847 z"
   id="path41"
   style="stroke-width:1" />
<path
   fill="#7a7b7d"
   opacity="1"
   stroke="none"
   d="m 163.18548,101.70769 c -0.25272,0.18904 -0.703,0.37596 -1.33697,0.53214 0.25735,-0.19858 0.69838,-0.36643 1.33697,-0.53214 z"
   id="path42"
   style="stroke-width:1" />
<path
   fill="#7f8081"
   opacity="1"
   stroke="none"
   d="m 208.88632,65.045562 c -0.34387,0.0839 -0.7373,-0.0334 -1.16386,-0.3753 0.34933,-0.0917 0.73181,0.0412 1.16386,0.3753 z"
   id="path43"
   style="stroke-width:1" />
<path
   fill="#67696a"
   opacity="1"
   stroke="none"
   d="m 309.07177,59.245612 c 0.0558,0.15748 -0.0465,0.33659 -0.30924,0.53393 -0.0566,-0.15861 0.0472,-0.33545 0.30924,-0.53393 z"
   id="path44"
   style="stroke-width:1" />
<path
   fill="#7a7b7d"
   opacity="1"
   stroke="none"
   d="m 339.1404,104.51128 c -0.21061,0.0773 -0.43891,-0.0282 -0.63809,-0.34031 0.22622,-0.0852 0.42332,0.0361 0.63809,0.34031 z"
   id="path45"
   style="stroke-width:1" />
<path
   fill="#737576"
   opacity="1"
   stroke="none"
   d="m 352.72749,326.59651 c -0.13449,0.0748 -0.27137,-0.0324 -0.43186,-0.3081 0.11822,-0.0668 0.26924,0.0314 0.43186,0.3081 z"
   id="path46"
   style="stroke-width:1" />
<path
   fill="#7a7b7d"
   opacity="1"
   stroke="none"
   d="m 338.10211,102.23383 c -0.0871,-0.18346 -0.0112,-0.39987 0.25961,-0.6074 0.0977,0.1974 5.6e-4,0.38593 -0.25961,0.6074 z"
   id="path47"
   style="stroke-width:1" />
<path
   fill="#7a7b7d"
   opacity="1"
   stroke="none"
   d="m 161.55434,102.22672 c 0.0544,0.14421 -0.047,0.33904 -0.31816,0.56389 -0.0591,-0.15107 0.0517,-0.33217 0.31816,-0.56389 z"
   id="path48"
   style="stroke-width:1" />
<path
   fill="#7a7b7d"
   opacity="1"
   stroke="none"
   d="m 160.9574,102.824 c 0.0537,0.14444 -0.0482,0.33902 -0.32067,0.56214 -0.0587,-0.15164 0.0532,-0.33181 0.32067,-0.56214 z"
   id="path49"
   style="stroke-width:1" />
<path
   fill="#7a7b7d"
   opacity="1"
   stroke="none"
   d="m 339.83832,100.55778 c -0.0324,-0.25444 0.11847,-0.29152 0.37331,-0.16811 -0.0158,0.10857 -0.11383,0.18356 -0.37331,0.16811 z"
   id="path50"
   style="stroke-width:1" />
<path
   fill="#67696a"
   opacity="1"
   stroke="none"
   d="m 308.46692,59.803852 c 0.0699,0.16279 -0.0223,0.35986 -0.28815,0.57551 -0.0738,-0.16802 0.0262,-0.35463 0.28815,-0.57551 z"
   id="path51"
   style="stroke-width:1" />
<path
   fill="#67696a"
   opacity="1"
   stroke="none"
   d="m 307.88285,60.411002 c 0.0539,0.14191 -0.0493,0.32737 -0.31371,0.55073 -0.0553,-0.1438 0.0507,-0.32548 0.31371,-0.55073 z"
   id="path52"
   style="stroke-width:1" />
<path
   fill="#818283"
   opacity="1"
   stroke="none"
   d="m 144.92756,329.21985 c 0.0479,0.0285 0.0302,0.13026 0.032,0.38547 -0.18979,0.0129 -0.22886,-0.14242 -0.032,-0.38547 z"
   id="path53"
   style="stroke-width:1" />
<path
   fill="#67696a"
   opacity="1"
   stroke="none"
   d="m 307.27574,60.997532 c 0.0693,0.16665 -0.0238,0.36623 -0.29131,0.57839 -0.0733,-0.17344 0.0278,-0.35945 0.29131,-0.57839 z"
   id="path54"
   style="stroke-width:1" />
<path
   fill="#6e7071"
   opacity="1"
   stroke="none"
   d="m 361.20725,110.41894 c -0.156,0.0613 -0.35373,-0.0363 -0.5708,-0.30581 0.16347,-0.0656 0.34628,0.0407 0.5708,0.30581 z"
   id="path55"
   style="stroke-width:1" />
<path
   fill="#67696a"
   opacity="1"
   stroke="none"
   d="m 306.68201,61.604042 c 0.0581,0.14353 -0.0419,0.32954 -0.30487,0.55413 -0.0598,-0.14483 0.0435,-0.32823 0.30487,-0.55413 z"
   id="path56"
   style="stroke-width:1" />
<path
   fill="#67696a"
   opacity="1"
   stroke="none"
   d="m 306.08784,62.194882 c 0.0638,0.16247 -0.033,0.35985 -0.30106,0.57066 -0.0673,-0.16963 0.0366,-0.3527 0.30106,-0.57066 z"
   id="path57"
   style="stroke-width:1" />
<path
   fill="#7a7b7d"
   opacity="1"
   stroke="none"
   d="m 339.68587,105.62836 c -0.12169,0.004 -0.30492,-0.17885 -0.53961,-0.56402 0.12505,-0.009 0.30155,0.1842 0.53961,0.56402 z"
   id="path58"
   style="stroke-width:1" />
<path
   fill="#67696a"
   opacity="1"
   stroke="none"
   d="m 305.47438,62.787772 c 0.0749,0.17089 -0.012,0.37342 -0.27761,0.5826 -0.0806,-0.17922 0.0176,-0.36509 0.27761,-0.5826 z"
   id="path59"
   style="stroke-width:1" />
<path
   fill="#818283"
   opacity="1"
   stroke="none"
   d="m 161.0377,290.95605 c -0.11248,-0.0628 -0.22952,0.049 -0.33097,0.3547 -0.0126,-0.0578 0.091,-0.18252 0.33097,-0.3547 z"
   id="path60"
   style="stroke-width:1" />
<path
   fill="#737576"
   opacity="1"
   stroke="none"
   d="m 361.79558,111.03919 c -0.16449,0.0615 -0.35666,-0.0439 -0.56746,-0.32483 0.1675,-0.0644 0.35362,0.0467 0.56746,0.32483 z"
   id="path61"
   style="stroke-width:1" />
<path
   fill="#67696a"
   opacity="1"
   stroke="none"
   d="m 234.23174,463.01957 c 2.13377,-0.17459 4.5279,-0.51119 6.90855,-0.43383 6.60145,0.21458 13.19728,0.60161 20.07412,0.9712 -3.76365,0.42443 -7.81743,1.18922 -11.84563,1.07226 -4.97207,-0.14433 -9.92286,-1.02191 -15.13704,-1.60963 z"
   id="path62"
   style="stroke-width:1" />
<path
   fill="#737576"
   opacity="1"
   stroke="none"
   d="m 168.07731,464.65203 c 0.90225,-0.32531 2.0648,-0.86665 3.24832,-0.91725 3.93913,-0.1684 7.90084,0.26977 11.65983,-1.66162 0.64153,-0.32964 2.18295,1.0922 3.27058,1.91681 -2.88514,-2.08524 -5.72157,0.49629 -8.60454,0.27755 -3.07379,-0.23314 -6.20061,0.23266 -9.57419,0.38451 z"
   id="path63"
   style="stroke-width:1" />
<path
   fill="#67696a"
   opacity="1"
   stroke="none"
   d="m 140.09215,462.60047 c 5.64387,0.68633 11.43345,1.56559 17.33825,2.63325 -3.87346,-0.21159 -7.87398,-0.52271 -11.84549,-1.05162 -1.81186,-0.24131 -3.56647,-0.91251 -5.49276,-1.58163 z"
   id="path64"
   style="stroke-width:1" />
<path
   fill="#6e7071"
   opacity="1"
   stroke="none"
   d="m 120.40364,429.53621 c 0.75207,4.21587 1.3704,8.42682 1.92474,12.91181 -0.66469,-2.60649 -1.30317,-5.47985 -1.84926,-8.37067 -0.25151,-1.33139 -0.32216,-2.69695 -0.47584,-4.29743 -0.001,-0.25042 0.26663,-0.24863 0.40036,-0.24371 z"
   id="path65"
   style="stroke-width:1" />
<path
   fill="#67696a"
   opacity="1"
   stroke="none"
   d="m 197.05385,468.55488 c 4.38705,-0.0905 8.92796,-0.001 13.62765,0.28669 -4.3854,0.0969 -8.92958,-0.005 -13.62765,-0.28669 z"
   id="path66"
   style="stroke-width:1" />
<path
   fill="#7f8081"
   opacity="1"
   stroke="none"
   d="m 265.60883,464.40624 c 1.21747,1.05483 2.45525,2.31845 3.64296,3.7945 -1.24093,-1.0536 -2.43178,-2.3197 -3.64296,-3.7945 z"
   id="path67"
   style="stroke-width:1" />
<path
   fill="#7f8081"
   opacity="1"
   stroke="none"
   d="m 261.62444,463.52635 c 0.36621,-0.69259 0.89817,-1.49001 1.43013,-2.28746 0.69713,0.64973 1.39427,1.29942 2.02644,2.17237 -1.1027,-0.41681 -2.09913,-1.68221 -3.45657,0.11509 z"
   id="path68"
   style="stroke-width:1" />
<path
   fill="#6e7071"
   opacity="1"
   stroke="none"
   d="m 122.24874,442.92429 c 0.44608,1.04124 0.90114,2.32272 1.28979,3.85937 -0.47121,-1.03629 -0.87601,-2.32772 -1.28979,-3.85937 z"
   id="path69"
   style="stroke-width:1" />
<path
   fill="#67696a"
   opacity="1"
   stroke="none"
   d="m 137.7418,461.38439 c 0.54059,0.0758 1.19188,0.32851 1.86693,0.80638 -0.56958,-0.0597 -1.16291,-0.34463 -1.86693,-0.80638 z"
   id="path70"
   style="stroke-width:1" />
<path
   fill="#7f8081"
   opacity="1"
   stroke="none"
   d="m 265.03014,463.76256 c 0.17453,-0.0755 0.38854,0.0103 0.60071,0.28414 -0.1883,0.0844 -0.37476,-0.0192 -0.60071,-0.28414 z"
   id="path71"
   style="stroke-width:1" />
<path
   fill="#67696a"
   opacity="1"
   stroke="none"
   d="m 157.55156,465.46766 c 0.0515,0.008 0.17333,0.11718 0.38349,0.30818 -0.10201,0.0608 -0.23583,-0.036 -0.38349,-0.30818 z"
   id="path72"
   style="stroke-width:1" />
<path
   fill="#67696a"
   opacity="1"
   stroke="none"
   d="m 196.57995,468.30457 c 0.017,-0.1031 0.15159,-0.0905 0.33402,0.0514 0.0635,0.0416 -0.20089,-0.0232 -0.33402,-0.0514 z"
   id="path73"
   style="stroke-width:1" />
<path
   fill="#7f8081"
   opacity="1"
   stroke="none"
   d="m 269.21198,468.5372 c 0.17475,-0.0735 0.38912,0.0141 0.5995,0.2891 -0.18927,0.0823 -0.37458,-0.0229 -0.5995,-0.2891 z"
   id="path74"
   style="stroke-width:1" />
<path
   fill="#7f8081"
   opacity="1"
   stroke="none"
   d="m 269.80744,469.13363 c 0.15648,-0.0819 0.35049,-0.009 0.56288,0.23529 -0.16287,0.0874 -0.34412,0.004 -0.56288,-0.23529 z"
   id="path75"
   style="stroke-width:1" />
<path
   fill="#67696a"
   opacity="1"
   stroke="none"
   d="m 136.59978,460.69904 c 0.0446,0.0189 0.18996,0.12643 0.43829,0.31695 -0.099,0.0564 -0.24588,-0.0474 -0.43829,-0.31695 z"
   id="path76"
   style="stroke-width:1" />
<path
   fill="#7ba8c2"
   opacity="1"
   stroke="none"
   d="m 316.48043,355.93086 c -1.6743,-5.24052 -3.17701,-10.28215 -4.90982,-15.24337 -0.99216,-2.84067 -3.32711,-4.0981 -5.49383,-3.37329 -2.09026,0.69924 -2.84509,3.09378 -2.0127,6.05609 2.30097,8.18866 4.56008,16.38913 6.84291,24.58291 0.99559,3.57351 0.15961,5.86623 -3.34572,8.06291 -12.74174,7.98486 -22.35468,19.31275 -31.50037,31.02784 -5.68541,7.28274 -11.40565,14.54448 -14.8944,23.25952 -3.17405,7.92897 -3.72708,15.97285 -1.45388,24.19136 0.46553,1.68298 0.0141,2.53661 -1.73109,2.52101 -2.98057,-0.0267 -5.97573,0.0423 -8.93728,-0.22906 -4.92145,-0.45086 -9.82113,-1.13934 -15.24921,-1.78998 0.6278,-1.379 1.00257,-2.57605 1.6614,-3.5882 4.0348,-6.1987 6.25442,-13.11009 7.33904,-20.29761 1.01654,-6.7364 -1.18887,-13.0708 -4.48522,-18.82477 -8.17821,-14.27547 -19.52778,-25.7498 -32.64554,-35.50168 -2.60013,-1.93295 -5.58555,-3.67682 -8.66521,-4.56432 -5.72639,-1.6502 -6.47425,-6.10443 -5.89094,-10.51209 0.94363,-7.13046 2.72912,-14.16453 4.43748,-21.17143 0.69043,-2.83181 0.47397,-5.03374 -1.69751,-5.93423 -2.50056,-1.03704 -4.50514,0.0744 -5.33233,2.36275 -1.54233,4.26682 -3.08644,8.60732 -3.87895,13.05104 -0.88417,4.95769 -0.92735,10.06478 -1.35375,15.10544 -0.0404,0.47787 -0.20318,0.94543 -0.39578,1.80394 -15.30308,-4.20978 -30.27056,-5.79837 -43.87858,6.87108 0.13003,-2.19105 -0.0556,-3.37745 0.29834,-4.37177 4.42456,-12.42843 8.75009,-24.89675 13.46025,-37.21753 4.63921,-12.13516 9.43478,-24.22467 14.64617,-36.12203 3.53606,-8.07263 7.90602,-15.78014 11.90819,-23.64832 1.07065,-2.10487 2.33589,-2.67683 4.76927,-1.53751 6.0981,2.85513 12.74853,2.93265 19.30546,2.76593 6.88051,-0.17491 6.87551,-0.37218 8.86905,5.90425 1.93321,6.08655 4.1565,7.66531 10.40735,6.0714 5.54804,-1.41469 10.90637,-3.58794 16.321,-5.50384 2.03151,-0.71882 3.00825,-2.33461 2.69054,-4.45937 -0.38112,-2.5488 -1.0729,-5.05147 -1.44538,-7.60109 -0.14203,-0.97219 -0.10658,-2.58558 0.43833,-2.90751 0.96584,-0.57061 2.52736,-0.78398 3.57782,-0.41049 1.64823,0.58598 3.23242,1.61566 4.52981,2.80102 0.554,0.50618 0.53187,1.90748 0.40056,2.85039 -0.42095,3.02269 -1.11406,6.00825 -1.51194,9.03315 -0.32892,2.50077 0.89972,4.23693 3.27736,5.03228 4.31165,1.44227 8.66269,2.76752 12.96692,4.23096 2.19927,0.74773 4.06522,1.93763 6.75626,0.963 3.89073,-1.40915 5.72506,-4.22183 6.57346,-7.79412 0.77076,-3.24554 2.46303,-4.30709 5.70758,-4.14886 13.56506,0.66156 26.47406,-2.17135 38.82891,-7.71241 0.61655,-0.27654 1.29224,-0.42122 1.97157,-0.63721 14.54379,31.04172 23.07934,63.63578 28.23611,97.84051 -3.35363,-0.72866 -5.83018,-1.31109 -8.32501,-1.80022 -7.0714,-1.38663 -13.84981,0.0282 -20.43101,2.47485 -4.0127,1.49176 -4.15994,1.45615 -4.73724,-2.7085 -0.42114,-3.03815 -1.27969,-6.01566 -2.01845,-9.25282 z"
   id="path77"
   style="stroke-width:1" />
<path
   fill="#7ca9c2"
   opacity="1"
   stroke="none"
   d="m 333.16078,235.4313 c -1.2596,13.50673 -11.90627,25.55108 -25.54033,28.89857 -2.21996,0.54506 -4.44645,1.06768 -6.65204,1.66656 -14.47698,3.93079 -28.18757,1.33042 -41.39145,-5.00828 -3.91609,-1.87995 -7.6976,-4.0887 -11.36396,-6.42437 -2.70349,-1.72226 -5.23744,-2.01803 -8.15085,-0.72175 -5.34431,2.37785 -10.6904,4.77093 -16.14142,6.88522 -8.63948,3.35101 -17.63513,3.66727 -26.74021,2.62485 -3.14421,-0.35999 -6.38746,-0.28983 -9.42435,-1.05532 -5.17365,-1.30411 -7.86599,-5.92689 -11.12882,-9.57092 -6.42923,-7.18035 -10.6527,-15.52963 -11.52397,-25.42475 1.95038,3.60535 5.08556,4.74141 8.81431,3.93437 3.73804,-0.80906 7.59207,-1.65035 11.00525,-3.28958 11.99496,-5.76067 23.0464,-26.07906 16.86934,-39.81538 -2.06509,-4.59231 -6.37141,-7.9335 -11.55547,-7.36528 -0.53232,0.0584 -1.09906,-0.19738 -1.64984,-0.30738 5.24638,-3.75392 11.43652,-4.69502 17.53427,-6.00843 13.68318,-2.94726 27.67785,-2.40107 41.47278,-3.9166 10.99259,-1.20766 21.20766,2.56139 31.83401,3.49196 10.6742,0.93476 20.42545,4.60747 29.78831,9.65503 2.2558,1.21612 5.00513,1.50996 7.5181,2.25949 0.92119,0.27475 1.81506,0.64098 2.54924,1.22082 -4.12024,-0.61774 -7.76327,-0.39427 -10.14817,3.45342 -3.72846,6.01534 -5.14689,12.54356 -4.08951,19.57812 0.23505,1.56359 0.49056,3.13131 0.59301,4.70645 0.52856,8.12682 4.10212,14.80108 9.86247,20.34439 1.06931,1.02902 2.70427,1.62113 4.18412,2.04483 4.72903,1.35408 9.19716,0.3232 13.47518,-1.85604 z"
   id="path78"
   style="stroke-width:1" />
<path
   fill="#7ba7c1"
   opacity="1"
   stroke="none"
   d="m 156.36506,424.11344 c -6.49071,-8.7663 -11.7574,-17.93005 -14.9355,-28.21768 -3.09678,-10.02442 2.95375,-17.49838 10.69156,-21.44265 7.18565,-3.66279 14.70614,-3.53799 22.32891,-1.06493 4.49163,1.45721 9.2749,2.10712 13.64125,3.84004 9.59751,3.80927 18.12764,9.20178 25.09355,17.13009 5.56696,6.33611 12.07935,11.85293 16.23208,19.36488 2.69518,4.87526 5.83643,9.78934 5.04547,15.60853 -1.58565,11.66566 -6.16716,22.46679 -16.35923,28.57019 -10.21636,6.11796 -21.32686,4.93396 -31.84011,-4.53858 -3.83251,-3.45313 -8.12288,-6.42426 -11.76744,-10.05398 -6.18349,-6.15832 -12.02031,-12.66475 -18.13054,-19.19591 m 27.21296,-37.87593 c -4.92448,-0.52031 -9.84314,-1.38761 -14.77496,-1.47029 -5.76579,-0.0967 -9.66042,4.63191 -10.19073,10.34939 -0.70308,7.58022 2.74902,13.52556 6.82108,19.17435 7.54144,10.4615 16.71092,19.46735 26.55502,27.72935 4.06743,3.41372 8.88927,6.1364 14.53335,4.31354 10.32566,-3.33483 13.44948,-12.96766 10.17571,-22.71669 -1.76469,-5.25517 -4.67438,-10.28074 -7.83982,-14.87813 -6.45104,-9.36929 -14.92984,-16.68802 -25.27965,-22.50152 z"
   id="path79"
   style="stroke-width:1" />
<path
   fill="#7aa6c0"
   opacity="1"
   stroke="none"
   d="m 332.26115,117.86008 c 3.09613,-0.13099 4.42257,1.51856 4.91823,4.0392 1.93319,9.83117 0.29309,19.5885 -0.70596,29.34878 -0.67629,6.60695 -5.53113,9.7382 -10.96127,11.69665 -4.0348,1.45522 -8.4899,2.54424 -12.72969,2.45544 -7.41708,-0.15534 -14.91246,-0.82192 -22.19259,-2.22252 -9.72815,-1.87158 -18.44959,-12.97896 -18.41834,-22.89896 0.0288,-9.13995 0.47737,-18.28254 0.9154,-27.41561 0.22623,-4.71753 1.04927,-5.17247 5.85371,-4.40307 7.35332,1.17758 14.74395,2.14887 22.06244,3.51038 9.0754,1.68836 18.08984,3.70284 27.14009,5.52946 1.25826,0.25396 2.57068,0.23951 4.11798,0.36025 m -36.13925,9.00076 c -2.58291,-1.34052 -4.86117,-0.47334 -6.92711,1.11291 -4.76122,3.65571 -4.82172,12.53445 -0.20064,16.39826 1.86027,1.55541 3.87402,2.04756 6.05892,0.91823 5.76197,-2.97827 7.90419,-14.72054 1.06883,-18.4294 z"
   id="path80"
   style="stroke-width:1" />
<path
   fill="#7ba7c0"
   opacity="1"
   stroke="none"
   d="m 316.01408,458.41679 c -6.04163,6.49809 -13.17951,10.4795 -21.84538,11.53557 -5.68773,0.69308 -10.92562,-0.50856 -15.41138,-4.13402 -4.9991,-4.04026 -9.15426,-8.75748 -11.39989,-14.95837 -2.33282,-6.44154 -0.72066,-12.60153 2.1615,-18.14442 3.45656,-6.64756 7.64639,-12.98527 12.10428,-19.02492 7.80676,-10.57681 16.39277,-20.5379 27.10816,-28.3392 7.39954,-5.38722 15.18953,-10.20338 24.40691,-11.85749 2.80781,-0.50386 5.73011,-0.40514 8.60271,-0.48541 0.65147,-0.0183 1.43483,0.2043 1.9537,0.59008 7.66949,5.70257 10.34349,12.97889 7.533,22.33284 -5.07745,16.8988 -11.54703,33.24683 -22.09365,47.58074 -3.86642,5.25481 -8.62037,9.85653 -13.11996,14.9046 M 284.1347,434.07308 c 0.58804,3.06224 0.41405,6.57406 1.90611,9.10291 4.59432,7.78682 16.04764,10.57808 23.97119,6.16848 10.07953,-5.60946 17.19589,-14.24073 23.15597,-23.84782 4.31997,-6.96339 4.47226,-14.85043 4.24922,-22.76679 -0.1647,-5.84482 -3.41121,-10.03488 -9.10824,-11.61056 -4.56973,-1.26399 -8.0922,1.04145 -12.08605,2.6747 -11.81516,4.83188 -19.85859,13.64485 -26.50357,23.9494 -3.04112,4.71587 -5.78148,9.7881 -5.58463,16.32968 z"
   id="path81"
   style="stroke-width:1" />
<path
   fill="#79a6c0"
   opacity="1"
   stroke="none"
   d="m 218.33996,105.0902 c 6.03903,-0.24125 11.79372,-0.46236 17.54634,-0.72798 1.99344,-0.092 3.26792,0.86999 3.81137,2.66065 0.91883,3.02743 2.08539,6.05745 2.43239,9.16624 1.09202,9.78397 1.17943,19.56856 -4.16732,28.37051 -3.94101,6.48781 -10.04082,10.08181 -17.46851,11.31267 -17.00415,2.8178 -30.22475,-3.85015 -40.75003,-16.73036 -1.24544,-1.52411 -1.9228,-3.98375 -1.88892,-5.9933 0.10036,-5.95382 0.57847,-11.90944 1.11981,-17.84511 0.45388,-4.97649 1.80898,-6.47087 6.75608,-7.0176 10.76073,-1.18923 21.54749,-2.14303 32.60879,-3.19572 m 17.12519,21.75812 c -2.96341,-5.56702 -8.19424,-5.86749 -11.28668,-3.01465 -4.27313,3.94205 -3.57058,12.99171 1.19341,16.46467 3.98743,2.90687 9.20462,1.20925 10.85032,-3.45612 1.16429,-3.30064 0.55105,-6.44696 -0.75705,-9.9939 z"
   id="path82"
   style="stroke-width:1" />
<path
   fill="#79a5bf"
   opacity="1"
   stroke="none"
   d="m 213.83662,80.209802 c 18.5456,-5.63068 37.31421,-6.78035 56.29581,-5.78433 4.85765,0.25489 9.72951,0.46062 14.55728,1.01562 9.12445,1.04895 17.27706,4.84954 25.33458,9.06015 7.72264,4.03562 14.02277,9.34859 17.9604,17.213948 0.78101,1.56005 1.36247,3.22 2.45544,5.83908 -5.00493,-0.79738 -9.18211,-1.30631 -13.29067,-2.14946 -9.04968,-1.85715 -18.01261,-4.19206 -27.11294,-5.727378 -5.72766,-0.96632 -11.63602,-1.03288 -17.47053,-1.15285 -7.91988,-0.16286 -15.84682,0.0407 -23.77028,-6.6e-4 -1.03196,-0.005 -2.27679,-0.25618 -3.05533,-0.86415 -3.89362,-3.04052 -8.45384,-3.59075 -13.03413,-3.21698 -14.34939,1.17095 -28.67634,2.61678 -43.01251,3.95033 -0.38055,0.0354 -0.76726,0.004 -1.16025,0.004 0.32583,-4.94085 12.64014,-13.78416 25.30313,-18.18778 z"
   id="path83"
   style="stroke-width:1" />
<path
   fill="#c0d4de"
   opacity="1"
   stroke="none"
   d="m 188.38248,180.49463 c 0.75527,0.0732 1.32201,0.32895 1.85433,0.27061 5.18406,-0.56822 9.49038,2.77297 11.55547,7.36528 6.17706,13.73632 -4.87438,34.05471 -16.86934,39.81538 -3.41318,1.63923 -7.26721,2.48052 -11.00525,3.28958 -3.72875,0.80704 -6.86393,-0.32902 -8.74443,-4.16081 -0.24574,-1.6547 -0.30894,-3.2546 -0.1202,-5.20905 0.42155,-2.46566 0.59116,-4.57679 0.76077,-6.6879 0.19195,-2.27671 0.38389,-4.5534 0.87976,-7.0983 0.39679,-0.71989 0.48965,-1.17159 0.5825,-1.62328 1.14646,-5.75586 4.60431,-10.17711 8.3774,-14.39585 2.63454,-2.9457 5.25787,-5.91368 8.07944,-8.6742 1.2327,-1.20604 2.94859,-1.91822 4.64955,-2.89146 z"
   id="path84"
   style="stroke-width:1" />
<path
   fill="#c0d4de"
   opacity="1"
   stroke="none"
   d="m 333.30857,235.28642 c -4.42581,2.32412 -8.89394,3.355 -13.62297,2.00092 -1.47985,-0.4237 -3.11481,-1.01581 -4.18412,-2.04483 -5.76035,-5.54331 -9.33391,-12.21757 -9.86247,-20.34439 -0.10245,-1.57514 -0.35796,-3.14286 -0.59301,-4.70645 -1.05738,-7.03456 0.36105,-13.56278 4.08951,-19.57812 2.3849,-3.84769 6.02793,-4.07116 10.2283,-3.24451 7.7058,3.26342 12.84252,8.33317 15.29586,16.52994 1.5448,5.16134 3.07013,10.13322 2.64145,15.95391 -0.0925,1.45724 -0.006,2.49749 0.0806,3.53775 -0.14576,1.50851 -0.29149,3.01705 -0.74328,4.78666 -0.39256,0.71468 -0.47908,1.16822 -0.56558,1.62177 -0.87219,1.78082 -1.74438,3.56164 -2.76434,5.48735 z"
   id="path85"
   style="stroke-width:1" />
<path
   fill="#76a2ba"
   opacity="1"
   stroke="none"
   d="m 252.61967,128.42273 c -0.44234,-6.2272 -0.69727,-12.19362 -1.44747,-18.09711 -0.32486,-2.55643 0.51997,-2.95755 2.61957,-2.83797 2.48038,0.14126 4.97347,0.32401 7.44891,0.21452 2.58462,-0.11432 3.18408,0.91867 3.01574,3.38205 -0.62278,9.11317 -0.97443,18.24457 -1.55059,27.36136 -0.50514,7.99321 2.84104,14.67072 6.88884,21.15 0.82594,1.32207 1.63228,2.65638 2.83527,4.61668 -1.3437,-0.14648 -2.03074,-0.2081 -2.71404,-0.29807 -3.59436,-0.47327 -7.18608,-1.33706 -10.78184,-1.35277 -7.75085,-0.0339 -15.5034,0.37426 -23.25597,0.5744 -0.55845,0.0144 -1.12258,-0.19089 -2.5188,-0.44738 12.99336,-8.08496 18.8247,-19.60754 19.46038,-34.26571 z"
   id="path86"
   style="stroke-width:1" />
<path
   fill="#77a3bc"
   opacity="1"
   stroke="none"
   d="m 133.04179,397.57936 c 4.72752,14.35356 12.10108,26.91589 22.12186,37.95041 2.25055,2.47825 4.30562,5.13403 6.64646,7.94301 -0.80566,0.35053 -1.29297,0.5759 -1.79021,0.77663 -2.79888,1.12994 -5.74757,1.99418 -8.34918,3.47056 -1.7588,0.99807 -2.89,1.27484 -4.43069,-0.17263 -1.51301,-1.42151 -3.18022,-2.71867 -4.92525,-3.84499 -3.50964,-2.26523 -7.29327,-2.97329 -11.48032,-1.20974 -0.37448,-0.95039 -0.81658,-1.72983 -0.98966,-2.56505 -1.59156,-7.68019 -3.39416,-15.44025 -2.27324,-23.274 0.92175,-6.44176 2.91905,-12.73011 4.48235,-19.07592 0.0314,-0.12745 0.58636,-0.12592 0.98788,0.002 z"
   id="path87"
   style="stroke-width:1" />
<path
   fill="#78a4bd"
   opacity="1"
   stroke="none"
   d="m 345.58939,432.49736 c 0.0846,-0.19162 0.16927,-0.38327 0.44533,-0.83854 2.88264,-6.48365 5.57385,-12.70361 8.26507,-18.9236 0.0712,-0.24973 0.14247,-0.49942 0.39107,-1.0762 1.14007,-2.69615 2.10278,-5.0652 3.38597,-8.22296 0.89197,2.5189 1.46776,4.14493 2.04354,5.77092 0.0369,0.62673 0.0738,1.25342 0.11489,2.30858 0.43181,1.42505 0.8595,2.42167 1.28719,3.41828 0.0303,0.54706 0.0607,1.09416 0.038,2.04761 0.2919,4.2449 0.92528,8.08439 0.91246,11.92173 -0.018,5.39918 -0.51538,10.79675 -0.80776,16.19502 -0.0864,0.17134 -0.13837,0.35257 -0.32073,0.79901 -0.92599,1.90249 -1.6872,3.54955 -2.44844,5.19663 -1e-5,0 -0.0431,-0.011 -0.30313,0.021 -1.31882,0.11703 -2.37761,0.20215 -3.4364,0.28724 -1.76701,-0.0422 -3.53404,-0.0844 -5.77969,-0.1308 -3.70088,0.55559 -6.58598,1.72701 -8.60241,4.4742 -0.46074,0.37663 -0.92147,0.75326 -1.67667,1.3062 -0.64579,0.65151 -0.99714,1.12665 -1.3485,1.60179 -1e-5,0 0.1564,0.14943 -0.10832,0.14411 -2.73742,2.03584 -4.55822,1.83106 -8.57812,-1.00478 1.3346,-1.85935 2.66926,-3.71878 4.00392,-5.57825 0.21172,-0.23274 0.42344,-0.46544 0.88485,-0.90689 0.47594,-0.6326 0.70221,-1.05644 0.92847,-1.48032 0.67775,-0.94047 1.35549,-1.88094 2.26876,-3.11368 2.97058,-4.93359 5.7056,-9.57495 8.44063,-14.21626 z"
   id="path88"
   style="stroke-width:1" />
<path
   fill="#75a0b8"
   opacity="1"
   stroke="none"
   d="m 310.20021,72.118542 c -0.7474,-2.77503 0.66229,-4.54629 2.37213,-5.92322 9.27831,-7.47178 19.65821,-9.57166 30.98619,-5.68242 4.71868,1.62007 7.94196,9.71063 6.09152,15.73832 -1.23559,4.02485 -3.1779,7.88311 -5.19599,11.60325 -2.03225,3.74629 -5.95554,5.06546 -9.7703,6.22686 -0.54726,0.16661 -1.84665,-0.54876 -2.01552,-1.09698 -0.25872,-0.83994 -0.10557,-2.04455 0.34425,-2.82137 1.47738,-2.55141 3.42881,-4.85182 4.71685,-7.48415 2.17804,-4.45117 0.72478,-8.62118 -2.14969,-12.17865 -2.77085,-3.42917 -6.67629,-4.39259 -11.00076,-3.81341 -4.58339,0.61385 -8.28195,2.47641 -10.57196,6.7577 -0.52421,0.98001 -1.77798,1.56978 -2.696,2.33915 -0.35959,-1.14073 -0.71916,-2.28146 -1.11072,-3.66508 z"
   id="path89"
   style="stroke-width:1" />
<path
   fill="#749fb7"
   opacity="1"
   stroke="none"
   d="m 164.63923,78.338252 c -2.36989,-7.81395 1.71447,-17.55265 9.71181,-22.49941 9.40281,-5.81613 13.93778,-4.90689 21.529,3.93354 1.67888,1.95514 2.77754,4.4085 4.14336,6.63245 -0.22703,0.20848 -0.45406,0.41696 -0.6811,0.62545 -0.98694,-0.69381 -1.96084,-1.4071 -2.96301,-2.07816 -5.16922,-3.4613 -10.42644,-5.9315 -16.96312,-3.58458 -6.57816,2.3618 -7.52644,9.09843 -5.38133,14.60663 1.69516,4.35284 5.26019,7.11357 8.79415,9.89371 0.75354,0.59281 1.16055,1.62612 1.7272,2.45649 -1.03381,0.64611 -2.02164,1.75663 -3.10877,1.86427 -8.11952,0.80396 -14.43724,-3.65631 -16.80819,-11.85039 z"
   id="path90"
   style="stroke-width:1" />
<path
   fill="#77a3bc"
   opacity="1"
   stroke="none"
   d="m 184.28042,173.18685 c -0.27089,0.17814 -0.54178,0.35629 -1.13392,0.67186 -0.59866,0.23075 -0.89347,0.29027 -1.15089,0.42255 -3.51531,1.80646 -3.5888,1.71576 -3.73203,-2.40606 -0.0626,-1.80285 -0.45384,-3.59427 -0.69584,-5.39088 -0.0313,-4.03604 -0.0625,-8.07207 0.10351,-12.37177 1.99477,0.61913 3.7922,1.50193 5.58963,2.38474 0.24187,0.21654 0.48374,0.43308 0.94646,0.90613 2.60285,1.5213 4.98485,2.78609 7.36686,4.05087 0.20041,0.0674 0.40082,0.1347 0.86862,0.39917 2.58532,1.2882 4.90328,2.37929 7.57211,3.63555 -3.05887,1.2632 -5.56879,2.29971 -8.07871,3.33622 -0.21591,0.0333 -0.43181,0.0666 -0.95829,0.0716 -2.43954,1.41113 -4.56852,2.85058 -6.69751,4.29004 z"
   id="path91"
   style="stroke-width:1" />
<path
   fill="#b7c9d2"
   opacity="1"
   stroke="none"
   d="m 190.32825,67.909992 c 3.82924,2.66672 4.54278,6.83097 5.72782,10.63259 0.60589,1.94368 -1.10131,2.95731 -2.89159,3.44732 -5.18011,1.41786 -11.95396,-2.93965 -14.02235,-6.51143 -1.8786,-3.24405 1.13541,-7.68347 5.33061,-7.99051 1.85837,-0.13602 3.75203,0.21035 5.85551,0.42203 z"
   id="path92"
   style="stroke-width:1" />
<path
   fill="#b7c9d2"
   opacity="1"
   stroke="none"
   d="m 318.53891,79.063872 c 0.78207,-4.54587 3.41997,-6.53958 7.77146,-6.0941 3.66652,0.37536 5.84477,2.99869 5.60778,6.75372 -0.24562,3.89253 -2.89556,6.37113 -6.81793,6.37715 -4.03512,0.006 -6.23125,-2.26785 -6.56131,-7.03677 z"
   id="path93"
   style="stroke-width:1" />
<path
   fill="#719ab1"
   opacity="1"
   stroke="none"
   d="m 318.95366,179.696 c -1.92864,-1.15012 -3.67983,-2.17091 -6.14949,-3.6105 6.97142,-1.4838 13.08617,-2.78527 19.64787,-4.18188 -0.80955,4.25204 -1.48393,8.42527 -2.44127,12.53257 -0.42254,1.81279 -1.65659,1.0917 -2.77225,0.37917 -2.67405,-1.70785 -5.40151,-3.33208 -8.28486,-5.11936 z"
   id="path94"
   style="stroke-width:1" />

<path
   fill="#aec0c9"
   opacity="1"
   stroke="none"
   d="m 135.63486,447.52974 c 2.96579,-0.80558 8.0958,1.24594 8.85195,3.82356 0.42711,1.45593 0.16142,3.87062 -0.80203,4.76217 -0.92599,0.85684 -3.21811,0.60842 -4.7885,0.27448 -1.14988,-0.24451 -2.10856,-1.40609 -3.14307,-2.1716 -2.31937,-1.71627 -2.43417,-4.19141 -0.11835,-6.68861 z"
   id="path96"
   style="stroke-width:1" />
<path
   fill="#dfdfe0"
   opacity="1"
   stroke="none"
   d="m 258.94658,277.92557 c -2.60921,-0.93344 -1.88059,-2.63089 -1.2512,-4.2014 0.69337,-1.73017 1.83296,-1.93863 3.54188,-1.12989 1.76515,0.83533 3.69653,1.34845 5.59085,1.87406 2.15058,0.59668 2.78744,1.71125 2.13544,3.94639 -0.64626,2.2154 -1.71775,2.58444 -3.70474,1.77689 -2.00286,-0.81402 -4.08142,-1.44179 -6.31223,-2.26605 z"
   id="path97"
   style="stroke-width:1" />
<path
   fill="#a5b5be"
   opacity="1"
   stroke="none"
   d="m 348.30925,466.2346 c -0.72983,0.52986 -1.25341,1.10412 -1.88354,1.26745 -1.40398,0.36398 -2.86123,0.52264 -4.29676,0.76493 0.30252,-1.36916 0.14437,-3.27463 0.99521,-4.00551 2.41317,-2.07304 5.20889,-3.71445 7.93431,-5.39561 0.40803,-0.2517 1.54302,-0.006 1.80703,0.37711 0.27756,0.40317 0.13427,1.41714 -0.21083,1.87084 -1.31127,1.72392 -2.77855,3.32917 -4.34542,5.12079 z"
   id="path98"
   style="stroke-width:1" />
<path
   fill="#d7d8d8"
   opacity="1"
   stroke="none"
   d="m 222.77005,271.55369 c 2.11119,-0.61598 3.96016,-1.40747 5.8806,-1.66404 0.94094,-0.12572 2.01464,0.74221 3.02827,1.16042 -0.55808,1.07466 -0.8529,2.68192 -1.72829,3.11463 -1.9033,0.94075 -4.09076,1.33088 -6.18575,1.85066 -1.27845,0.31722 -2.83876,1.05749 -3.3743,-1.01548 -0.46845,-1.81339 0.0751,-3.12407 2.37947,-3.44619 z"
   id="path99"
   style="stroke-width:1" />
<path
   fill="#a9bac3"
   opacity="1"
   stroke="none"
   d="m 165.8945,455.73724 c -0.11101,0.59985 -0.34347,1.41163 -0.59521,1.41764 -3.49203,0.0835 -6.98672,0.0565 -10.60536,0.0565 1.14281,-4.40304 4.81252,-6.03968 8.06429,-4.0338 1.0828,0.66791 2.00839,1.59066 3.13628,2.55968 z"
   id="path100"
   style="stroke-width:1" />
<path
   fill="#40505a"
   opacity="1"
   stroke="none"
   d="m 361.82555,444.94165 c 0.13201,-5.24172 0.62935,-10.63929 0.64739,-16.03847 0.0128,-3.83734 -0.62056,-7.67683 -0.872,-11.71983 0.70664,2.45717 1.68722,5.09629 1.85227,7.78551 0.29535,4.81237 0.23979,9.66091 0.0361,14.48185 -0.0759,1.79611 -0.97804,3.55729 -1.66378,5.49094 z"
   id="path101"
   style="stroke-width:1" />


<path
   fill="#4a5f6a"
   opacity="1"
   stroke="none"
   d="m 192.17736,168.88958 c 2.26878,-1.10086 4.7787,-2.13737 7.83757,-3.40057 -2.66883,-1.25626 -4.98679,-2.34735 -7.41617,-3.60613 3.53452,0.9168 7.18048,2.0013 11.44292,3.26919 -3.72747,3.0886 -8.0207,2.43663 -11.86432,3.73751 z"
   id="path104"
   style="stroke-width:1" />
<path
   fill="#919ea7"
   opacity="1"
   stroke="none"
   d="m 329.06042,466.44284 c 0.99911,0.919 1.7803,1.77963 2.5615,2.64026 -1.07346,0.24046 -2.1918,0.79574 -3.21025,0.65053 -1.69328,-0.24152 -3.32247,-0.93252 -4.97865,-1.43424 -0.003,-0.37871 -0.006,-0.75742 -0.008,-1.13613 1.806,-0.25961 3.61201,-0.51921 5.63589,-0.72042 z"
   id="path105"
   style="stroke-width:1" />
<path
   fill="#40505a"
   opacity="1"
   stroke="none"
   d="m 332.86949,452.25378 c -1.13747,1.8202 -2.47212,3.67963 -3.80672,5.53898 4.0199,2.83584 5.8407,3.04062 8.50049,0.93085 -0.83988,3.0135 -1.72251,3.41751 -4.48998,2.27314 -1.08615,-0.44919 -2.25608,-0.7559 -3.41749,-0.95079 -2.73674,-0.45921 -3.14328,-1.17084 -1.38667,-3.39673 1.26942,-1.60857 2.92167,-2.91499 4.60037,-4.39545 z"
   id="path106"
   style="stroke-width:1" />
<path
   fill="#40505a"
   opacity="1"
   stroke="none"
   d="m 354.12456,412.82195 c -2.51599,6.13326 -5.2072,12.35322 -8.07438,18.67963 1.25558,-3.2972 2.66428,-6.71063 4.12572,-10.10134 1.22589,-2.84427 2.51327,-5.66207 3.94866,-8.57829 z"
   id="path107"
   style="stroke-width:1" />
<path
   fill="#40505a"
   opacity="1"
   stroke="none"
   d="m 360.23378,409.01738 c -0.68919,-1.43639 -1.26498,-3.06242 -2.15695,-5.58132 -1.28319,3.15776 -2.2459,5.52681 -3.37854,8.02769 0.15321,-1.42322 0.36821,-3.01112 0.82771,-4.52479 0.53613,-1.76603 1.28581,-3.46724 2.14741,-5.73495 2.34078,2.4034 3.19029,4.75233 2.56037,7.81337 z"
   id="path108"
   style="stroke-width:1" />
<path
   fill="#56707f"
   opacity="1"
   stroke="none"
   d="m 204.81286,72.888272 c 0.42411,0.92333 1.14101,1.69792 1.02542,2.3171 -0.18548,0.99355 -0.9219,1.88425 -1.42549,2.81842 -0.47841,-0.6985 -1.05434,-1.35163 -1.40659,-2.10882 -0.32403,-0.69651 -0.51944,-1.49784 -0.56832,-2.26593 -0.0607,-0.95372 0.0876,-1.92073 0.14557,-2.88201 0.7162,0.63425 1.4324,1.2685 2.22941,2.12124 z"
   id="path109"
   style="stroke-width:1" />
<path
   fill="#4a5f6a"
   opacity="1"
   stroke="none"
   d="m 177.471,166.76953 c 0.33874,1.5114 0.72994,3.30282 0.79258,5.10567 0.14323,4.12182 0.21672,4.21252 3.73203,2.40606 0.25742,-0.13228 0.55223,-0.1918 1.04816,-0.29553 0.1457,0.16957 0.12486,0.43802 -0.008,0.51595 -1.55027,0.9102 -3.11738,1.79174 -4.68004,2.68085 -0.38016,-1.61561 -0.9384,-3.21453 -1.09189,-4.85139 -0.16316,-1.74006 0.0573,-3.51608 0.20702,-5.56161 z"
   id="path110"
   style="stroke-width:1" />
<path
   fill="#40505a"
   opacity="1"
   stroke="none"
   d="m 345.39178,432.54511 c -2.53741,4.59356 -5.27244,9.23492 -8.17265,13.98634 0.68032,-1.6035 1.42194,-3.37865 2.39383,-5.01723 1.78898,-3.01619 3.7133,-5.95204 5.77882,-8.96911 z"
   id="path111"
   style="stroke-width:1" />

<path
   fill="#40505a"
   opacity="1"
   stroke="none"
   d="m 340.99257,455.73956 c 1.79824,-2.74131 4.68334,-3.91273 8.12565,-4.40467 -2.48909,1.51152 -5.19826,2.95517 -8.12565,4.40467 z"
   id="path113"
   style="stroke-width:1" />
<path
   fill="#4a5f6a"
   opacity="1"
   stroke="none"
   d="m 191.48232,161.26652 c -2.29013,-1.07701 -4.67213,-2.3418 -7.1251,-3.79708 2.2971,1.07613 4.66515,2.34272 7.1251,3.79708 z"
   id="path114"
   style="stroke-width:1" />
<path
   fill="#4a5f6a"
   opacity="1"
   stroke="none"
   d="m 184.49553,173.18583 c 1.91388,-1.43844 4.04286,-2.87789 6.32566,-4.24072 -1.9343,1.46432 -4.02243,2.85202 -6.32566,4.24072 z"
   id="path115"
   style="stroke-width:1" />
<path
   fill="#4a5f6a"
   opacity="1"
   stroke="none"
   d="m 183.20425,156.3067 c -1.7408,-0.69222 -3.53823,-1.57502 -5.5204,-2.45656 0.42393,-0.27429 1.28725,-0.95229 1.59738,-0.75604 1.37547,0.87035 2.59222,1.99155 3.92302,3.2126 z"
   id="path116"
   style="stroke-width:1" />
<path
   fill="#7ca9c2"
   opacity="1"
   stroke="none"
   d="m 165.64485,215.32102 c -6.5e-4,1.96781 -0.17024,4.07894 -0.52899,6.28464 -0.006,-1.98405 0.17696,-4.06269 0.52899,-6.28464 z"
   id="path117"
   style="stroke-width:1" />

<path
   fill="#40505a"
   opacity="1"
   stroke="none"
   d="m 359.09991,451.0452 c 0.55733,-1.59844 1.31854,-3.2455 2.25134,-5.00614 -0.56811,1.57686 -1.30777,3.2672 -2.25134,5.00614 z"
   id="path119"
   style="stroke-width:1" />
<path
   fill="#40505a"
   opacity="1"
   stroke="none"
   d="m 355.26067,451.54944 c 0.9546,-0.23249 2.01339,-0.31761 3.33926,-0.41354 -0.52988,2.44857 -1.91995,1.27522 -3.33926,0.41354 z"
   id="path120"
   style="stroke-width:1" />
<path
   fill="#7ca9c2"
   opacity="1"
   stroke="none"
   d="m 337.5257,223.24547 c -0.23054,-0.89509 -0.31712,-1.93534 -0.24975,-3.10913 0.23387,0.89896 0.31376,1.93145 0.24975,3.10913 z"
   id="path121"
   style="stroke-width:1" />
<path
   fill="#40505a"
   opacity="1"
   stroke="none"
   d="m 361.59314,414.70474 c -0.49838,-0.76751 -0.92607,-1.76413 -1.28229,-2.96515 0.49862,0.77572 0.92578,1.75585 1.28229,2.96515 z"
   id="path122"
   style="stroke-width:1" />
<path
   fill="#40505a"
   opacity="1"
   stroke="none"
   d="m 337.9464,458.6453 c 0.15416,-0.46701 0.50551,-0.94215 1.03781,-1.45411 -0.15955,0.4575 -0.50007,0.95173 -1.03781,1.45411 z"
   id="path123"
   style="stroke-width:1" />
<path
   fill="#7ca9c2"
   opacity="1"
   stroke="none"
   d="m 336.23193,229.72193 c -0.0725,-0.37641 0.014,-0.82995 0.29409,-1.31629 0.084,0.39119 -0.0255,0.81516 -0.29409,1.31629 z"
   id="path124"
   style="stroke-width:1" />
<path
   fill="#40505a"
   opacity="1"
   stroke="none"
   d="m 334.69528,449.88399 c -0.0415,0.36719 -0.26781,0.79103 -0.66715,1.28582 0.0455,-0.36245 0.26394,-0.79581 0.66715,-1.28582 z"
   id="path125"
   style="stroke-width:1" />
<path
   fill="#7ca9c2"
   opacity="1"
   stroke="none"
   d="m 167.11369,206.53287 c 0.0696,0.37496 -0.0233,0.82666 -0.30281,1.32258 -0.0776,-0.38583 0.0314,-0.81583 0.30281,-1.32258 z"
   id="path126"
   style="stroke-width:1" />
<path
   fill="#c0d4de"
   opacity="1"
   stroke="none"
   d="m 183.7857,386.34943 c 10.14213,5.70158 18.62093,13.02031 25.07197,22.3896 3.16544,4.59739 6.07513,9.62296 7.83982,14.87813 3.27377,9.74903 0.14995,19.38186 -10.17571,22.71669 -5.64408,1.82286 -10.46592,-0.89982 -14.53335,-4.31354 -9.8441,-8.262 -19.01358,-17.26785 -26.55502,-27.72935 -4.07206,-5.64879 -7.52416,-11.59413 -6.82108,-19.17435 0.53031,-5.71748 4.42494,-10.44611 10.19073,-10.34939 4.93182,0.0827 9.85048,0.94998 14.98264,1.58221 z"
   id="path127"
   style="stroke-width:1" />
<path
   fill="#2e3437"
   opacity="1"
   stroke="none"
   d="m 296.32197,126.9663 c 6.63529,3.6034 4.49307,15.34567 -1.2689,18.32394 -2.1849,1.12933 -4.19865,0.63718 -6.05892,-0.91823 -4.62108,-3.86381 -4.56058,-12.74255 0.20064,-16.39826 2.06594,-1.58625 4.3442,-2.45343 7.12718,-1.00745 z"
   id="path128"
   style="stroke-width:1" />
<path
   fill="#c0d4de"
   opacity="1"
   stroke="none"
   d="m 284.1382,433.79299 c -0.20035,-6.26149 2.54001,-11.33372 5.58113,-16.04959 6.64498,-10.30455 14.68841,-19.11752 26.50357,-23.9494 3.99385,-1.63325 7.51632,-3.93869 12.08605,-2.6747 5.69703,1.57568 8.94354,5.76574 9.10824,11.61056 0.22304,7.91636 0.0708,15.8034 -4.24922,22.76679 -5.96008,9.60709 -13.07644,18.23836 -23.15597,23.84782 -7.92355,4.4096 -19.37687,1.61834 -23.97119,-6.16848 -1.49206,-2.52885 -1.31807,-6.04067 -1.90261,-9.383 z"
   id="path129"
   style="stroke-width:1" />
<path
   fill="#2e3437"
   opacity="1"
   stroke="none"
   d="m 235.57862,127.04803 c 1.19463,3.34723 1.80787,6.49355 0.64358,9.79419 -1.6457,4.66537 -6.86289,6.36299 -10.85032,3.45612 -4.76399,-3.47296 -5.46654,-12.52262 -1.19341,-16.46467 3.09244,-2.85284 8.32327,-2.55237 11.40015,3.21436 z"
   id="path130"
   style="stroke-width:1" />
</svg>
